  0
SECTION
  2
HEADER
  9
$ACADVER
  1
AC1009
  9
$INSBASE
 10
0.0
 20
0.0
 30
0.0
  9
$EXTMIN
 10
-2.121392157560936
 20
-2.849057974903519
 30
-0.0152582070036829
  9
$EXTMAX
 10
60.3021248154134426
 20
61.2449042143358611
 30
0.0000003492459655
  9
$LIMMIN
 10
0.0
 20
0.0
  9
$LIMMAX
 10
420.0
 20
297.0
  9
$ORTHOMODE
 70
     0
  9
$REGENMODE
 70
     1
  9
$FILLMODE
 70
     1
  9
$QTEXTMODE
 70
     0
  9
$MIRRTEXT
 70
     1
  9
$DRAGMODE
 70
     2
  9
$LTSCALE
 40
1.0
  9
$OSMODE
 70
  3583
  9
$ATTMODE
 70
     1
  9
$TEXTSIZE
 40
2.5
  9
$TRACEWID
 40
1.0
  9
$TEXTSTYLE
  7
OPENSANS
  9
$CLAYER
  8
0
  9
$CELTYPE
  6
BYLAYER
  9
$CECOLOR
 62
   256
  9
$DIMSCALE
 40
1.0
  9
$DIMASZ
 40
0.175
  9
$DIMEXO
 40
0.125
  9
$DIMDLI
 40
3.75
  9
$DIMRND
 40
0.0
  9
$DIMDLE
 40
0.0
  9
$DIMEXE
 40
0.375
  9
$DIMTP
 40
0.0
  9
$DIMTM
 40
0.0
  9
$DIMTXT
 40
0.25
  9
$DIMCEN
 40
2.5
  9
$DIMTSZ
 40
0.0
  9
$DIMTOL
 70
     0
  9
$DIMLIM
 70
     0
  9
$DIMTIH
 70
     0
  9
$DIMTOH
 70
     0
  9
$DIMSE1
 70
     0
  9
$DIMSE2
 70
     0
  9
$DIMTAD
 70
     1
  9
$DIMZIN
 70
     8
  9
$DIMBLK
  1
ARCHTICK
  9
$DIMASO
 70
     1
  9
$DIMSHO
 70
     1
  9
$DIMPOST
  1

  9
$DIMAPOST
  1

  9
$DIMALT
 70
     0
  9
$DIMALTD
 70
     3
  9
$DIMALTF
 40
0.03937007874
  9
$DIMLFAC
 40
100.0
  9
$DIMTOFL
 70
     1
  9
$DIMTVP
 40
0.0
  9
$DIMTIX
 70
     0
  9
$DIMSOXD
 70
     0
  9
$DIMSAH
 70
     0
  9
$DIMBLK1
  1

  9
$DIMBLK2
  1

  9
$DIMSTYLE
  2
EZDXF
  9
$DIMCLRD
 70
     0
  9
$DIMCLRE
 70
     0
  9
$DIMCLRT
 70
     0
  9
$DIMTFAC
 40
1.0
  9
$DIMGAP
 40
0.1
  9
$LUNITS
 70
     2
  9
$LUPREC
 70
     4
  9
$SKETCHINC
 40
1.0
  9
$FILLETRAD
 40
10.0
  9
$AUNITS
 70
     0
  9
$AUPREC
 70
     2
  9
$MENU
  1
.
  9
$ELEVATION
 40
0.0
  9
$PELEVATION
 40
0.0
  9
$THICKNESS
 40
0.0
  9
$LIMCHECK
 70
     0
  9
$BLIPMODE
 70
     0
  9
$CHAMFERA
 40
0.0
  9
$CHAMFERB
 40
0.0
  9
$SKPOLY
 70
     0
  9
$TDCREATE
 40
2458531.9039930561557412
  9
$TDUPDATE
 40
2459368.8397337961941957
  9
$TDINDWG
 40
0.0018634259
  9
$TDUSRTIMER
 40
0.0018634259
  9
$USRTIMER
 70
     1
  9
$ANGBASE
 50
0.0
  9
$ANGDIR
 70
     0
  9
$PDMODE
 70
     0
  9
$PDSIZE
 40
0.0
  9
$PLINEWID
 40
0.0
  9
$COORDS
 70
     1
  9
$SPLFRAME
 70
     0
  9
$SPLINETYPE
 70
     6
  9
$SPLINESEGS
 70
     8
  9
$ATTDIA
 70
     1
  9
$ATTREQ
 70
     1
  9
$HANDLING
 70
     1
  9
$HANDSEED
  5
1C1
  9
$SURFTAB1
 70
     6
  9
$SURFTAB2
 70
     6
  9
$SURFTYPE
 70
     6
  9
$SURFU
 70
     6
  9
$SURFV
 70
     6
  9
$UCSNAME
  2

  9
$UCSORG
 10
0.0
 20
0.0
 30
0.0
  9
$UCSXDIR
 10
1.0
 20
0.0
 30
0.0
  9
$UCSYDIR
 10
0.0
 20
1.0
 30
0.0
  9
$PUCSNAME
  2

  9
$PUCSORG
 10
0.0
 20
0.0
 30
0.0
  9
$PUCSXDIR
 10
1.0
 20
0.0
 30
0.0
  9
$PUCSYDIR
 10
0.0
 20
1.0
 30
0.0
  9
$USERI1
 70
     0
  9
$USERI2
 70
     0
  9
$USERI3
 70
     0
  9
$USERI4
 70
     0
  9
$USERI5
 70
     0
  9
$USERR1
 40
0.0
  9
$USERR2
 40
0.0
  9
$USERR3
 40
0.0
  9
$USERR4
 40
0.0
  9
$USERR5
 40
0.0
  9
$WORLDVIEW
 70
     1
  9
$SHADEDGE
 70
     3
  9
$SHADEDIF
 70
    70
  9
$TILEMODE
 70
     1
  9
$MAXACTVP
 70
    64
  9
$PLIMCHECK
 70
     0
  9
$PEXTMIN
 10
1.0000000000000000E+20
 20
1.0000000000000000E+20
 30
1.0000000000000000E+20
  9
$PEXTMAX
 10
-1.0000000000000000E+20
 20
-1.0000000000000000E+20
 30
-1.0000000000000000E+20
  9
$PLIMMIN
 10
0.0
 20
0.0
  9
$PLIMMAX
 10
420.0
 20
297.0
  9
$UNITMODE
 70
     0
  9
$VISRETAIN
 70
     1
  9
$PLINEGEN
 70
     0
  9
$PSLTSCALE
 70
     1
  0
ENDSEC
  0
SECTION
  2
TABLES
  0
TABLE
  2
VPORT
 70
     1
  0
VPORT
  2
*ACTIVE
 70
     0
 10
0.0
 20
0.0
 11
1.0
 21
1.0
 12
35.7806814109860198
 22
13.3972060991425206
 13
0.0
 23
0.0
 14
0.5
 24
0.5
 15
0.5
 25
0.5
 16
0.0
 26
0.0
 36
1.0
 17
0.0
 27
0.0
 37
0.0
 40
107.1781111947988023
 41
1.876905041031653
 42
50.0
 43
0.0
 44
0.0
 50
0.0
 51
0.0
 71
     0
 72
  1000
 73
     1
 74
     3
 75
     0
 76
     0
 77
     0
 78
     0
  0
ENDTAB
  0
TABLE
  2
LTYPE
 70
    20
  0
LTYPE
  2
CONTINUOUS
 70
     0
  3

 72
    65
 73
     0
 40
0.0
  0
LTYPE
  2
CENTER
 70
     0
  3
Center ____ _ ____ _ ____ _ ____ _ ____ _ ____
 72
    65
 73
     4
 40
5.0800000000000001
 49
3.1749999999999989
 49
-0.635
 49
0.635
 49
-0.635
  0
LTYPE
  2
CENTERX2
 70
     0
  3
Center (2x) ________  __  ________  __  ________
 72
    65
 73
     4
 40
8.8900000000000006
 49
6.3499999999999988
 49
-0.635
 49
1.27
 49
-0.635
  0
LTYPE
  2
CENTER2
 70
     0
  3
Center (.5x) ____ _ ____ _ ____ _ ____ _ ____
 72
    65
 73
     4
 40
2.54
 49
1.5869999999999991
 49
-0.318
 49
0.318
 49
-0.318
  0
LTYPE
  2
DASHED
 70
     0
  3
Dashed __ __ __ __ __ __ __ __ __ __ __ __ __ _
 72
    65
 73
     2
 40
1.524
 49
1.27
 49
-0.254
  0
LTYPE
  2
DASHEDX2
 70
     0
  3
Dashed (2x) ____  ____  ____  ____  ____  ____
 72
    65
 73
     2
 40
3.048
 49
2.54
 49
-0.508
  0
LTYPE
  2
DASHED2
 70
     0
  3
Dashed (.5x) _ _ _ _ _ _ _ _ _ _ _ _ _ _
 72
    65
 73
     2
 40
0.762
 49
0.635
 49
-0.127
  0
LTYPE
  2
PHANTOM
 70
     0
  3
Phantom ______  __  __  ______  __  __  ______
 72
    65
 73
     6
 40
6.3499999999999988
 49
3.1749999999999989
 49
-0.635
 49
0.635
 49
-0.635
 49
0.635
 49
-0.635
  0
LTYPE
  2
PHANTOMX2
 70
     0
  3
Phantom (2x)____________    ____    ____    ____________
 72
    65
 73
     6
 40
10.7949999999999999
 49
6.3499999999999988
 49
-0.635
 49
1.27
 49
-0.635
 49
1.27
 49
-0.635
  0
LTYPE
  2
PHANTOM2
 70
     0
  3
Phantom (.5x) ___ _ _ ___ _ _ ___ _ _ ___ _ _ ___
 72
    65
 73
     6
 40
3.1749999999999989
 49
1.5869999999999991
 49
-0.318
 49
0.318
 49
-0.318
 49
0.318
 49
-0.318
  0
LTYPE
  2
DASHDOT
 70
     0
  3
Dash dot __ . __ . __ . __ . __ . __ . __ . __
 72
    65
 73
     4
 40
3.556
 49
2.54
 49
-0.508
 49
0.0
 49
-0.508
  0
LTYPE
  2
DASHDOTX2
 70
     0
  3
Dash dot (2x) ____  .  ____  .  ____  .  ____
 72
    65
 73
     4
 40
6.0960000000000001
 49
5.0800000000000001
 49
-0.508
 49
0.0
 49
-0.508
  0
LTYPE
  2
DASHDOT2
 70
     0
  3
Dash dot (.5x) _ . _ . _ . _ . _ . _ . _ . _
 72
    65
 73
     4
 40
1.778
 49
1.27
 49
-0.254
 49
0.0
 49
-0.254
  0
LTYPE
  2
DOT
 70
     0
  3
Dot .  .  .  .  .  .  .  .  .  .  .  .  .  .  .  .
 72
    65
 73
     2
 40
0.508
 49
0.0
 49
-0.508
  0
LTYPE
  2
DOTX2
 70
     0
  3
Dot (2x) .    .    .    .    .    .    .    . 
 72
    65
 73
     2
 40
1.016
 49
0.0
 49
-1.016
  0
LTYPE
  2
DOT2
 70
     0
  3
Dot (.5) . . . . . . . . . . . . . . . . . . . 
 72
    65
 73
     2
 40
0.254
 49
0.0
 49
-0.254
  0
LTYPE
  2
DIVIDE
 70
     0
  3
Divide __ . . __ . . __ . . __ . . __ . . __
 72
    65
 73
     6
 40
4.0640000000000001
 49
2.54
 49
-0.508
 49
0.0
 49
-0.508
 49
0.0
 49
-0.508
  0
LTYPE
  2
DIVIDEX2
 70
     0
  3
Divide (2x) ____  . .  ____  . .  ____  . .  ____
 72
    65
 73
     6
 40
6.6040000000000001
 49
5.0800000000000001
 49
-0.508
 49
0.0
 49
-0.508
 49
0.0
 49
-0.508
  0
LTYPE
  2
DIVIDE2
 70
     0
  3
Divide(.5x) _ . _ . _ . _ . _ . _ . _ . _
 72
    65
 73
     6
 40
2.032
 49
1.27
 49
-0.254
 49
0.0
 49
-0.254
 49
0.0
 49
-0.254
  0
ENDTAB
  0
TABLE
  2
LAYER
 70
     4
  0
LAYER
  2
0
 70
     0
 62
     7
  6
CONTINUOUS
  0
LAYER
  2
DEFPOINTS
 70
     0
 62
     7
  6
CONTINUOUS
  0
LAYER
  2
SKIP
 70
     0
 62
     1
  6
CONTINUOUS
  0
LAYER
  2
DRAW
 70
     0
 62
     2
  6
CONTINUOUS
  0
ENDTAB
  0
TABLE
  2
STYLE
 70
    26
  0
STYLE
  2
STANDARD
 70
     0
 40
0.0
 41
1.0
 50
0.0
 71
     0
 42
2.5
  3
txt
  4

  0
STYLE
  2
OPENSANS-LIGHT
 70
     0
 40
0.0
 41
1.0
 50
0.0
 71
     0
 42
2.5
  3
txt
  4

  0
STYLE
  2
OPENSANS-LIGHT-ITALIC
 70
     0
 40
0.0
 41
1.0
 50
0.0
 71
     0
 42
2.5
  3
txt
  4

  0
STYLE
  2
OPENSANS
 70
     0
 40
0.0
 41
1.0
 50
0.0
 71
     0
 42
2.5
  3
txt
  4

  0
STYLE
  2
OPENSANS-ITALIC
 70
     0
 40
0.0
 41
1.0
 50
0.0
 71
     0
 42
2.5
  3
txt
  4

  0
STYLE
  2
OPENSANS-SEMIBOLD
 70
     0
 40
0.0
 41
1.0
 50
0.0
 71
     0
 42
2.5
  3
txt
  4

  0
STYLE
  2
OPENSANS-SEMIBOLDITALIC
 70
     0
 40
0.0
 41
1.0
 50
0.0
 71
     0
 42
2.5
  3
txt
  4

  0
STYLE
  2
OPENSANS-BOLD
 70
     0
 40
0.0
 41
1.0
 50
0.0
 71
     0
 42
2.5
  3
txt
  4

  0
STYLE
  2
OPENSANS-BOLDITALIC
 70
     0
 40
0.0
 41
1.0
 50
0.0
 71
     0
 42
2.5
  3
txt
  4

  0
STYLE
  2
OPENSANS-EXTRABOLD
 70
     0
 40
0.0
 41
1.0
 50
0.0
 71
     0
 42
2.5
  3
txt
  4

  0
STYLE
  2
OPENSANS-EXTRABOLDITALIC
 70
     0
 40
0.0
 41
1.0
 50
0.0
 71
     0
 42
2.5
  3
txt
  4

  0
STYLE
  2
OPENSANSCONDENSED-BOLD
 70
     0
 40
0.0
 41
1.0
 50
0.0
 71
     0
 42
2.5
  3
txt
  4

  0
STYLE
  2
OPENSANSCONDENSED-LIGHT
 70
     0
 40
0.0
 41
1.0
 50
0.0
 71
     0
 42
2.5
  3
txt
  4

  0
STYLE
  2
OPENSANSCONDENSED-ITALIC
 70
     0
 40
0.0
 41
1.0
 50
0.0
 71
     0
 42
2.5
  3
txt
  4

  0
STYLE
  2
LIBERATIONSANS
 70
     0
 40
0.0
 41
1.0
 50
0.0
 71
     0
 42
2.5
  3
txt
  4

  0
STYLE
  2
LIBERATIONSANS-BOLD
 70
     0
 40
0.0
 41
1.0
 50
0.0
 71
     0
 42
2.5
  3
txt
  4

  0
STYLE
  2
LIBERATIONSANS-BOLDITALIC
 70
     0
 40
0.0
 41
1.0
 50
0.0
 71
     0
 42
2.5
  3
txt
  4

  0
STYLE
  2
LIBERATIONSANS-ITALIC
 70
     0
 40
0.0
 41
1.0
 50
0.0
 71
     0
 42
2.5
  3
txt
  4

  0
STYLE
  2
LIBERATIONSERIF
 70
     0
 40
0.0
 41
1.0
 50
0.0
 71
     0
 42
2.5
  3
txt
  4

  0
STYLE
  2
LIBERATIONSERIF-BOLD
 70
     0
 40
0.0
 41
1.0
 50
0.0
 71
     0
 42
2.5
  3
txt
  4

  0
STYLE
  2
LIBERATIONSERIF-BOLDITALIC
 70
     0
 40
0.0
 41
1.0
 50
0.0
 71
     0
 42
2.5
  3
txt
  4

  0
STYLE
  2
LIBERATIONSERIF-ITALIC
 70
     0
 40
0.0
 41
1.0
 50
0.0
 71
     0
 42
2.5
  3
txt
  4

  0
STYLE
  2
LIBERATIONMONO
 70
     0
 40
0.0
 41
1.0
 50
0.0
 71
     0
 42
2.5
  3
txt
  4

  0
STYLE
  2
LIBERATIONMONO-BOLD
 70
     0
 40
0.0
 41
1.0
 50
0.0
 71
     0
 42
2.5
  3
txt
  4

  0
STYLE
  2
LIBERATIONMONO-BOLDITALIC
 70
     0
 40
0.0
 41
1.0
 50
0.0
 71
     0
 42
2.5
  3
txt
  4

  0
STYLE
  2
LIBERATIONMONO-ITALIC
 70
     0
 40
0.0
 41
1.0
 50
0.0
 71
     0
 42
2.5
  3
txt
  4

  0
ENDTAB
  0
TABLE
  2
VIEW
 70
     0
  0
ENDTAB
  0
TABLE
  2
UCS
 70
     0
  0
ENDTAB
  0
TABLE
  2
APPID
 70
     5
  0
APPID
  2
ACAD
 70
     0
  0
APPID
  2
HATCHBACKGROUNDCOLOR
 70
     0
  0
APPID
  2
ACAD_EXEMPT_FROM_CAD_STANDARDS
 70
     0
  0
APPID
  2
ACAD_NAV_VCDISPLAY
 70
     0
  0
APPID
  2
ACAD_MLEADERVER
 70
     0
  0
ENDTAB
  0
TABLE
  2
DIMSTYLE
 70
    12
  0
DIMSTYLE
  2
STANDARD
 70
     0
  3

  4

  5

  6

  7

 40
1.0
 41
2.5
 42
0.625
 43
3.75
 44
1.25
 45
0.0
 46
0.0
 47
0.0
 48
0.0
140
2.5
141
2.5
142
0.0
143
0.03937007874
144
1.0
145
0.0
146
1.0
147
0.625
 71
     0
 72
     0
 73
     0
 74
     0
 75
     0
 76
     0
 77
     1
 78
     8
170
     0
171
     3
172
     1
173
     0
174
     0
175
     0
176
     0
177
     0
178
     0
  0
DIMSTYLE
  2
EZDXF
 70
     0
  3

  4

  5
ARCHTICK
  6

  7

 40
1.0
 41
0.175
 42
0.125
 43
3.75
 44
0.375
 45
0.0
 46
0.0
 47
0.0
 48
0.0
140
0.25
141
2.5
142
0.0
143
0.03937007874
144
100.0
145
0.0
146
1.0
147
0.1
 71
     0
 72
     0
 73
     0
 74
     0
 75
     0
 76
     0
 77
     1
 78
     8
170
     0
171
     3
172
     1
173
     0
174
     0
175
     0
176
     0
177
     0
178
     0
  0
DIMSTYLE
  2
EZ_M_100_H25_CM
 70
     0
  3

  4

  5

  6

  7

 40
1.0
 41
0.25
 42
0.125
 43
3.75
 44
0.375
 45
0.0
 46
0.0
 47
0.0
 48
0.0
140
0.25
141
2.5
142
0.125
143
0.03937007874
144
100.0
145
0.0
146
1.0
147
0.1
 71
     0
 72
     0
 73
     0
 74
     0
 75
     0
 76
     0
 77
     1
 78
     8
170
     0
171
     3
172
     1
173
     0
174
     0
175
     0
176
     0
177
     0
178
     0
  0
DIMSTYLE
  2
EZ_M_50_H25_CM
 70
     0
  3

  4

  5

  6

  7

 40
1.0
 41
0.125
 42
0.0625
 43
3.75
 44
0.1875
 45
0.0
 46
0.0
 47
0.0
 48
0.0
140
0.125
141
2.5
142
0.0625
143
0.03937007874
144
100.0
145
0.0
146
1.0
147
0.05
 71
     0
 72
     0
 73
     0
 74
     0
 75
     0
 76
     0
 77
     1
 78
     8
170
     0
171
     3
172
     1
173
     0
174
     0
175
     0
176
     0
177
     0
178
     0
  0
DIMSTYLE
  2
EZ_M_25_H25_CM
 70
     0
  3

  4

  5

  6

  7

 40
1.0
 41
0.0625
 42
0.03125
 43
3.75
 44
0.09375
 45
0.0
 46
0.0
 47
0.0
 48
0.0
140
0.0625
141
2.5
142
0.03125
143
0.03937007874
144
100.0
145
0.0
146
1.0
147
0.025
 71
     0
 72
     0
 73
     0
 74
     0
 75
     0
 76
     0
 77
     1
 78
     8
170
     0
171
     3
172
     1
173
     0
174
     0
175
     0
176
     0
177
     0
178
     0
  0
DIMSTYLE
  2
EZ_M_20_H25_CM
 70
     0
  3

  4

  5

  6

  7

 40
1.0
 41
0.05
 42
0.025
 43
3.75
 44
0.075
 45
0.0
 46
0.0
 47
0.0
 48
0.0
140
0.05
141
2.5
142
0.025
143
0.03937007874
144
100.0
145
0.0
146
1.0
147
0.02
 71
     0
 72
     0
 73
     0
 74
     0
 75
     0
 76
     0
 77
     1
 78
     8
170
     0
171
     3
172
     1
173
     0
174
     0
175
     0
176
     0
177
     0
178
     0
  0
DIMSTYLE
  2
EZ_M_10_H25_CM
 70
     0
  3

  4

  5

  6

  7

 40
1.0
 41
0.025
 42
0.0125
 43
3.75
 44
0.0375
 45
0.0
 46
0.0
 47
0.0
 48
0.0
140
0.025
141
2.5
142
0.0125
143
0.03937007874
144
100.0
145
0.0
146
1.0
147
0.01
 71
     0
 72
     0
 73
     0
 74
     0
 75
     0
 76
     0
 77
     1
 78
     8
170
     0
171
     3
172
     1
173
     0
174
     0
175
     0
176
     0
177
     0
178
     0
  0
DIMSTYLE
  2
EZ_M_5_H25_CM
 70
     0
  3

  4

  5

  6

  7

 40
1.0
 41
0.0125
 42
0.00625
 43
3.75
 44
0.01875
 45
0.0
 46
0.0
 47
0.0
 48
0.0
140
0.0125
141
2.5
142
0.00625
143
0.03937007874
144
100.0
145
0.0
146
1.0
147
0.005
 71
     0
 72
     0
 73
     0
 74
     0
 75
     0
 76
     0
 77
     1
 78
     8
170
     0
171
     3
172
     1
173
     0
174
     0
175
     0
176
     0
177
     0
178
     0
  0
DIMSTYLE
  2
EZ_M_1_H25_CM
 70
     0
  3

  4

  5

  6

  7

 40
1.0
 41
0.0025
 42
0.00125
 43
3.75
 44
0.00375
 45
0.0
 46
0.0
 47
0.0
 48
0.0
140
0.0025
141
2.5
142
0.00125
143
0.03937007874
144
100.0
145
0.0
146
1.0
147
0.001
 71
     0
 72
     0
 73
     0
 74
     0
 75
     0
 76
     0
 77
     1
 78
     8
170
     0
171
     3
172
     1
173
     0
174
     0
175
     0
176
     0
177
     0
178
     0
  0
DIMSTYLE
  2
EZ_RADIUS
 70
     0
  3

  4

  5
CLOSEDBLANK
  6

  7

 40
1.0
 41
0.25
 42
0.125
 43
3.75
 44
0.375
 45
0.0
 46
0.0
 47
0.0
 48
0.0
140
0.25
141
0.0
142
0.0
143
0.03937007874
144
100.0
145
0.0
146
1.0
147
0.1
 71
     0
 72
     0
 73
     0
 74
     0
 75
     0
 76
     0
 77
     1
 78
     8
170
     0
171
     3
172
     0
173
     0
174
     0
175
     0
176
     0
177
     0
178
     0
  0
DIMSTYLE
  2
EZ_RADIUS_INSIDE
 70
     0
  3

  4

  5
CLOSEDBLANK
  6

  7

 40
1.0
 41
0.25
 42
0.125
 43
3.75
 44
0.375
 45
0.0
 46
0.0
 47
0.0
 48
0.0
140
0.25
141
0.0
142
0.0
143
0.03937007874
144
100.0
145
0.0
146
1.0
147
0.1
 71
     0
 72
     0
 73
     0
 74
     0
 75
     0
 76
     0
 77
     0
 78
     8
170
     0
171
     3
172
     0
173
     0
174
     1
175
     0
176
     0
177
     0
178
     0
  0
ENDTAB
  0
ENDSEC
  0
SECTION
  2
BLOCKS
  0
BLOCK
  8
0
  2
$MODEL_SPACE
 70
     0
 10
0.0
 20
0.0
 30
0.0
  3
$MODEL_SPACE
  1

  0
ENDBLK
  5
19
  8
0
  0
BLOCK
 67
     1
  8
0
  2
$PAPER_SPACE
 70
     0
 10
0.0
 20
0.0
 30
0.0
  3
$PAPER_SPACE
  1

  0
ENDBLK
  5
1D
 67
     1
  8
0
  0
BLOCK
  8
0
  2
_ARCHTICK
 70
     0
 10
0.0
 20
0.0
 30
0.0
  3
_ARCHTICK
  1

  0
POLYLINE
  5
75
  8
0
  6
BYBLOCK
 62
     0
 66
     1
 10
0.0
 20
0.0
 30
0.0
 40
0.15
 41
0.15
  0
VERTEX
  5
1B2
  8
0
  6
BYBLOCK
 62
     0
 10
-0.5
 20
-0.5000000000000001
 30
0.0
  0
VERTEX
  5
1B3
  8
0
  6
BYBLOCK
 62
     0
 10
0.5000000000000001
 20
0.5
 30
0.0
  0
SEQEND
  5
1B4
  8
0
  6
BYBLOCK
 62
     0
  0
ENDBLK
  5
74
  8
0
  0
BLOCK
  8
0
  2
_CLOSEDFILLED
 70
     0
 10
0.0
 20
0.0
 30
0.0
  3
_CLOSEDFILLED
  1

  0
SOLID
  5
79
  8
0
  6
BYBLOCK
 62
     0
 10
-1.0
 20
0.1643989837240255
 30
0.0
 11
0.0
 21
0.0
 31
0.0
 12
-1.0
 22
-0.1643989837240255
 32
0.0
 13
-1.0
 23
-0.1643989837240255
 33
0.0
  0
ENDBLK
  5
78
  8
0
  0
BLOCK
  8
0
  2
_CLOSEDBLANK
 70
     0
 10
0.0
 20
0.0
 30
0.0
  3
_CLOSEDBLANK
  1

  0
POLYLINE
  5
85
  8
0
  6
BYBLOCK
 62
     0
 66
     1
 10
0.0
 20
0.0
 30
0.0
 70
     1
  0
VERTEX
  5
1B5
  8
0
  6
BYBLOCK
 62
     0
 10
-1.0
 20
0.1643989837240255
 30
0.0
  0
VERTEX
  5
1B6
  8
0
  6
BYBLOCK
 62
     0
 10
0.0
 20
0.0
 30
0.0
  0
VERTEX
  5
1B7
  8
0
  6
BYBLOCK
 62
     0
 10
-1.0
 20
-0.1643989837240255
 30
0.0
  0
SEQEND
  5
1B8
  8
0
  6
BYBLOCK
 62
     0
  0
ENDBLK
  5
84
  8
0
  0
ENDSEC
  0
SECTION
  2
ENTITIES
  0
LINE
  5
89
  8
DRAW
 10
45.9528954752781189
 20
26.2869387608778986
 30
0.0
 11
9.0663369652378272
 21
37.0034746604578402
 31
0.0
  0
LINE
  5
8A
  8
DRAW
 10
9.0663369652378272
 20
37.0034746604578402
 30
0.0
 11
34.4684813065795694
 21
8.1903977115575017
 31
0.0
  0
LINE
  5
8B
  8
DRAW
 10
34.4684813065795694
 20
8.1903977115575017
 30
0.0
 11
28.4595601465642183
 21
46.129232787167453
 31
0.0
  0
LINE
  5
8C
  8
DRAW
 10
28.4595601465642183
 20
46.129232787167453
 30
0.0
 11
13.2044156803042991
 21
10.8766739053621393
 31
0.0
  0
LINE
  5
8D
  8
DRAW
 10
13.2044156803042991
 20
10.8766739053621393
 30
0.0
 11
44.9740258011812131
 21
32.4672786483767979
 31
0.0
  0
LINE
  5
8E
  8
DRAW
 10
44.9740258011812131
 20
32.4672786483767979
 30
0.0
 11
6.581232252705508
 21
31.2607365041750107
 31
0.0
  0
LINE
  5
8F
  8
DRAW
 10
6.581232252705508
 20
31.2607365041750107
 30
0.0
 11
39.643837593851849
 21
11.7075662124496205
 31
0.0
  0
LINE
  5
90
  8
DRAW
 10
39.643837593851849
 20
11.7075662124496205
 30
0.0
 11
22.2052691835637006
 21
45.932683775451693
 31
0.0
  0
LINE
  5
91
  8
DRAW
 10
22.2052691835637006
 20
45.932683775451693
 30
0.0
 11
18.5904044215845516
 21
7.6914090431128734
 31
0.0
  0
LINE
  5
92
  8
DRAW
 10
18.5904044215845516
 20
7.6914090431128734
 30
0.0
 11
42.1332353627771212
 21
38.0426438067272912
 31
0.0
  0
LINE
  5
93
  8
DRAW
 10
42.1332353627771212
 20
38.0426438067272912
 30
0.0
 11
5.9923609067126904
 21
25.0311283702916612
 31
0.0
  0
LINE
  5
94
  8
DRAW
 10
5.9923609067126904
 20
25.0311283702916612
 30
0.0
 11
43.4790290761553777
 21
16.6518652788435588
 31
0.0
  0
LINE
  5
95
  8
DRAW
 10
43.4790290761553777
 20
16.6518652788435588
 30
0.0
 11
16.3178219932438502
 21
43.8130723617551823
 31
0.0
  0
LINE
  5
96
  8
DRAW
 10
16.3178219932438502
 20
43.8130723617551823
 30
0.0
 11
24.6970850846917287
 21
6.3264041923124772
 31
0.0
  0
LINE
  5
97
  8
DRAW
 10
24.6970850846917287
 20
6.3264041923124772
 30
0.0
 11
37.7086005211276429
 21
42.4672786483767979
 31
0.0
  0
LINE
  5
98
  8
DRAW
 10
37.7086005211276429
 20
42.4672786483767979
 30
0.0
 11
7.357365757513044
 21
18.9244477071844699
 31
0.0
  0
LINE
  5
99
  8
DRAW
 10
7.357365757513044
 20
18.9244477071844699
 30
0.0
 11
45.5986404898518884
 21
22.5393124691633204
 31
0.0
  0
LINE
  5
9A
  8
DRAW
 10
45.5986404898518884
 20
22.5393124691633204
 30
0.0
 11
11.3735229268498994
 21
39.9778808794516891
 31
0.0
  0
LINE
  5
9B
  8
DRAW
 10
11.3735229268498994
 20
39.9778808794516891
 30
0.0
 11
30.9266932185751209
 21
6.9152755383052478
 31
0.0
  0
LINE
  5
9C
  8
DRAW
 10
30.9266932185751209
 20
6.9152755383052478
 30
0.0
 11
32.133235362777242
 21
45.3080690867809111
 31
0.0
  0
LINE
  5
9D
  8
DRAW
 10
32.133235362777242
 20
45.3080690867809111
 30
0.0
 11
10.5426306197622601
 21
13.5384589659041996
 31
0.0
  0
LINE
  5
9E
  8
DRAW
 10
10.5426306197622601
 20
13.5384589659041996
 30
0.0
 11
45.7951895015676911
 21
28.7936034321639198
 31
0.0
  0
LINE
  5
9F
  8
DRAW
 10
45.7951895015676911
 20
28.7936034321639198
 30
0.0
 11
7.8563544259577887
 21
34.8025245921794806
 31
0.0
  0
LINE
  5
A0
  8
DRAW
 10
7.8563544259577887
 20
34.8025245921794806
 30
0.0
 11
36.669431374857993
 21
9.4003802508375536
 31
0.0
  0
LINE
  5
A1
  8
DRAW
 10
36.669431374857993
 20
9.4003802508375536
 30
0.0
 11
25.9528954752782788
 21
46.2869387608779022
 31
0.0
  0
LINE
  5
A2
  8
DRAW
 10
25.9528954752782788
 20
46.2869387608779022
 30
0.0
 11
15.2363595756981098
 21
9.4003802508376495
 31
0.0
  0
LINE
  5
A3
  8
DRAW
 10
15.2363595756981098
 20
9.4003802508376495
 30
0.0
 11
44.0494365245986472
 21
34.8025245921790685
 31
0.0
  0
LINE
  5
A4
  8
DRAW
 10
44.0494365245986472
 20
34.8025245921790685
 30
0.0
 11
6.1106014489886027
 21
28.7936034321642396
 31
0.0
  0
LINE
  5
A5
  8
DRAW
 10
6.1106014489886027
 20
28.7936034321642396
 30
0.0
 11
41.3631603307937894
 21
13.5384589659039491
 31
0.0
  0
LINE
  5
A6
  8
DRAW
 10
41.3631603307937894
 20
13.5384589659039491
 30
0.0
 11
19.7725555877793013
 21
45.3080690867810105
 31
0.0
  0
LINE
  5
A7
  8
DRAW
 10
19.7725555877793013
 20
45.3080690867810105
 30
0.0
 11
20.9790977319809606
 21
6.9152755383052869
 31
0.0
  0
LINE
  5
A8
  8
DRAW
 10
20.9790977319809606
 20
6.9152755383052869
 30
0.0
 11
40.5322680237065427
 21
39.9778808794514617
 31
0.0
  0
LINE
  5
A9
  8
DRAW
 10
40.5322680237065427
 20
39.9778808794514617
 30
0.0
 11
6.3071504607043058
 21
22.5393124691636295
 31
0.0
  0
LINE
  5
AA
  8
DRAW
 10
6.3071504607043058
 20
22.5393124691636295
 30
0.0
 11
44.5484251930430872
 21
18.9244477071841786
 31
0.0
  0
LINE
  5
AB
  8
DRAW
 10
44.5484251930430872
 20
18.9244477071841786
 30
0.0
 11
14.1971904294287405
 21
42.4672786483768974
 31
0.0
  0
LINE
  5
AC
  8
DRAW
 10
14.1971904294287405
 20
42.4672786483768974
 30
0.0
 11
27.2087058658643492
 21
6.3264041923124656
 31
0.0
  0
LINE
  5
AD
  8
DRAW
 10
27.2087058658643492
 20
6.3264041923124656
 30
0.0
 11
35.5879689573124125
 21
43.8130723617551681
 31
0.0
  0
LINE
  5
AE
  8
DRAW
 10
35.5879689573124125
 20
43.8130723617551681
 30
0.0
 11
8.4267618744007535
 21
16.6518652788437684
 31
0.0
  0
LINE
  5
AF
  8
DRAW
 10
8.4267618744007535
 20
16.6518652788437684
 30
0.0
 11
45.9134300438435474
 21
25.0311283702914906
 31
0.0
  0
LINE
  5
B0
  8
DRAW
 10
45.9134300438435474
 20
25.0311283702914906
 30
0.0
 11
9.7725555877793902
 21
38.0426438067276607
 31
0.0
  0
LINE
  5
B1
  8
DRAW
 10
9.7725555877793902
 20
38.0426438067276607
 30
0.0
 11
33.315386528971402
 21
7.6914090431127589
 31
0.0
  0
LINE
  5
B2
  8
DRAW
 10
33.315386528971402
 20
7.6914090431127589
 30
0.0
 11
29.7005217669928498
 21
45.932683775451622
 31
0.0
  0
LINE
  5
B3
  8
DRAW
 10
29.7005217669928498
 20
45.932683775451622
 30
0.0
 11
12.26195335670422
 21
11.7075662124497804
 31
0.0
  0
LINE
  5
B4
  8
DRAW
 10
12.26195335670422
 20
11.7075662124497804
 30
0.0
 11
45.3245586978507689
 21
31.2607365041748899
 31
0.0
  0
LINE
  5
B5
  8
DRAW
 10
45.3245586978507689
 20
31.2607365041748899
 30
0.0
 11
6.93176514937507
 21
32.4672786483769116
 31
0.0
  0
LINE
  5
B6
  8
DRAW
 10
6.93176514937507
 20
32.4672786483769116
 30
0.0
 11
38.7013752702517024
 21
10.8766739053619297
 31
0.0
  0
LINE
  5
B7
  8
DRAW
 10
38.7013752702517024
 20
10.8766739053619297
 30
0.0
 11
23.4462308039922505
 21
46.1292327871674814
 31
0.0
  0
LINE
  5
B8
  8
DRAW
 10
23.4462308039922505
 20
46.1292327871674814
 30
0.0
 11
17.4373096439765298
 21
8.1903977115575692
 31
0.0
  0
LINE
  5
B9
  8
DRAW
 10
17.4373096439765298
 20
8.1903977115575692
 30
0.0
 11
42.839453985318471
 21
37.003474660457762
 31
0.0
  0
LINE
  5
BA
  8
DRAW
 10
42.839453985318471
 20
37.003474660457762
 30
0.0
 11
5.9528954752781216
 21
26.2869387608782112
 31
0.0
  0
LINE
  5
BB
  8
DRAW
 10
5.9528954752781216
 20
26.2869387608782112
 30
0.0
 11
42.8394539853184426
 21
15.5704028612979908
 31
0.0
  0
LINE
  5
BC
  8
DRAW
 10
42.8394539853184426
 20
15.5704028612979908
 30
0.0
 11
17.4373096439768389
 21
44.3834798101983665
 31
0.0
  0
LINE
  5
BD
  8
DRAW
 10
17.4373096439768389
 20
44.3834798101983665
 30
0.0
 11
23.4462308039922007
 21
6.444644734588322
 31
0.0
  0
LINE
  5
BE
  8
DRAW
 10
23.4462308039922007
 20
6.444644734588322
 30
0.0
 11
38.701375270252413
 21
41.6972036163932813
 31
0.0
  0
LINE
  5
BF
  8
DRAW
 10
38.701375270252413
 20
41.6972036163932813
 30
0.0
 11
6.9317651493749599
 21
20.1065988733792196
 31
0.0
  0
LINE
  5
C0
  8
DRAW
 10
6.9317651493749599
 20
20.1065988733792196
 30
0.0
 11
45.3245586978506196
 21
21.3131410175803104
 31
0.0
  0
LINE
  5
C1
  8
DRAW
 10
45.3245586978506196
 20
21.3131410175803104
 30
0.0
 11
12.2619533567044705
 21
40.8663113093062407
 31
0.0
  0
LINE
  5
C2
  8
DRAW
 10
12.2619533567044705
 20
40.8663113093062407
 30
0.0
 11
29.7005217669922388
 21
6.6411937463040536
 31
0.0
  0
LINE
  5
C3
  8
DRAW
 10
29.7005217669922388
 20
6.6411937463040536
 30
0.0
 11
33.3153865289722617
 21
44.8824684786426999
 31
0.0
  0
LINE
  5
C4
  8
DRAW
 10
33.3153865289722617
 20
44.8824684786426999
 30
0.0
 11
9.7725555877790207
 21
14.5312337150286499
 31
0.0
  0
LINE
  5
C5
  8
DRAW
 10
9.7725555877790207
 20
14.5312337150286499
 30
0.0
 11
45.913430043843583
 21
27.5427491514636884
 31
0.0
  0
LINE
  5
C6
  8
DRAW
 10
45.913430043843583
 20
27.5427491514636884
 30
0.0
 11
8.4267618744009152
 21
35.9220122429123307
 31
0.0
  0
LINE
  5
C7
  8
DRAW
 10
8.4267618744009152
 20
35.9220122429123307
 30
0.0
 11
35.587968957312107
 21
8.7608051600004551
 31
0.0
  0
LINE
  5
C8
  8
DRAW
 10
35.587968957312107
 20
8.7608051600004551
 30
0.0
 11
27.2087058658649816
 21
46.2474733294433022
 31
0.0
  0
LINE
  5
C9
  8
DRAW
 10
27.2087058658649816
 20
46.2474733294433022
 30
0.0
 11
14.1971904294284705
 21
10.1065988733790899
 31
0.0
  0
LINE
  5
CA
  8
DRAW
 10
14.1971904294284705
 20
10.1065988733790899
 30
0.0
 11
44.5484251930433288
 21
33.6494298145710431
 31
0.0
  0
LINE
  5
CB
  8
DRAW
 10
44.5484251930433288
 20
33.6494298145710431
 30
0.0
 11
6.3071504607043698
 21
30.0345650525925016
 31
0.0
  0
LINE
  5
CC
  8
DRAW
 10
6.3071504607043698
 20
30.0345650525925016
 30
0.0
 11
40.5322680237061235
 21
12.5959966423038807
 31
0.0
  0
LINE
  5
CD
  8
DRAW
 10
40.5322680237061235
 20
12.5959966423038807
 30
0.0
 11
20.979097731981021
 21
45.6586019834505095
 31
0.0
  0
LINE
  5
CE
  8
DRAW
 10
20.979097731981021
 20
45.6586019834505095
 30
0.0
 11
19.7725555877789709
 21
7.2658084349748959
 31
0.0
  0
LINE
  5
CF
  8
DRAW
 10
19.7725555877789709
 20
7.2658084349748959
 30
0.0
 11
41.3631603307941873
 21
39.035418555851372
 31
0.0
  0
LINE
  5
D0
  8
DRAW
 10
41.3631603307941873
 20
39.035418555851372
 30
0.0
 11
6.110601448988553
 21
23.7802740895918987
 31
0.0
  0
LINE
  5
D1
  8
DRAW
 10
6.110601448988553
 20
23.7802740895918987
 30
0.0
 11
44.0494365245983914
 21
17.7713529295761603
 31
0.0
  0
LINE
  5
D2
  8
DRAW
 10
44.0494365245983914
 20
17.7713529295761603
 30
0.0
 11
15.2363595756981596
 21
43.173497270918169
 31
0.0
  0
LINE
  5
D3
  8
DRAW
 10
15.2363595756981596
 20
43.173497270918169
 30
0.0
 11
25.9528954752773693
 21
6.2869387608778977
 31
0.0
  0
LINE
  5
D4
  8
DRAW
 10
25.9528954752773693
 20
6.2869387608778977
 30
0.0
 11
36.6694313748584122
 21
43.1734972709179701
 31
0.0
  0
LINE
  5
D5
  8
DRAW
 10
36.6694313748584122
 20
43.1734972709179701
 30
0.0
 11
7.8563544259574662
 21
17.7713529295770201
 31
0.0
  0
LINE
  5
D6
  8
DRAW
 10
7.8563544259574662
 20
17.7713529295770201
 30
0.0
 11
45.7951895015676484
 21
23.7802740895915292
 31
0.0
  0
LINE
  5
D7
  8
DRAW
 10
45.7951895015676484
 20
23.7802740895915292
 30
0.0
 11
10.5426306197622992
 21
39.0354185558516491
 31
0.0
  0
LINE
  5
D8
  8
DRAW
 10
10.5426306197622992
 20
39.0354185558516491
 30
0.0
 11
32.1332353627763823
 21
7.265808434974601
 31
0.0
  0
LINE
  5
D9
  8
DRAW
 10
32.1332353627763823
 20
7.265808434974601
 30
0.0
 11
30.9266932185750392
 21
45.6586019834505592
 31
0.0
  0
LINE
  5
DA
  8
DRAW
 10
30.9266932185750392
 20
45.6586019834505592
 30
0.0
 11
11.3735229268494802
 21
12.5959966423045593
 31
0.0
  0
LINE
  5
DB
  8
DRAW
 10
11.3735229268494802
 20
12.5959966423045593
 30
0.0
 11
45.5986404898519382
 21
30.0345650525921393
 31
0.0
  0
LINE
  5
DC
  8
DRAW
 10
45.5986404898519382
 20
30.0345650525921393
 30
0.0
 11
7.3573657575132714
 21
33.6494298145719029
 31
0.0
  0
LINE
  5
DD
  8
DRAW
 10
7.3573657575132714
 20
33.6494298145719029
 30
0.0
 11
37.7086005211274795
 21
10.1065988733788696
 31
0.0
  0
LINE
  5
DE
  8
DRAW
 10
37.7086005211274795
 20
10.1065988733788696
 30
0.0
 11
24.6970850846922083
 21
46.247473329443352
 31
0.0
  0
LINE
  5
DF
  8
DRAW
 10
24.6970850846922083
 20
46.247473329443352
 30
0.0
 11
16.3178219932433102
 21
8.7608051600009063
 31
0.0
  0
LINE
  5
E0
  8
DRAW
 10
16.3178219932433102
 20
8.7608051600009063
 30
0.0
 11
43.4790290761555127
 21
35.9220122429119968
 31
0.0
  0
LINE
  5
E1
  8
DRAW
 10
43.4790290761555127
 20
35.9220122429119968
 30
0.0
 11
5.992360906712757
 21
27.5427491514651912
 31
0.0
  0
LINE
  5
E2
  8
DRAW
 10
5.992360906712757
 20
27.5427491514651912
 30
0.0
 11
42.1332353627770075
 21
14.5312337150283408
 31
0.0
  0
LINE
  5
E3
  8
DRAW
 10
42.1332353627770075
 20
14.5312337150283408
 30
0.0
 11
18.5904044215854007
 21
44.8824684786432613
 31
0.0
  0
LINE
  5
E4
  8
DRAW
 10
18.5904044215854007
 20
44.8824684786432613
 30
0.0
 11
22.2052691835630895
 21
6.6411937463042277
 31
0.0
  0
LINE
  5
E5
  8
DRAW
 10
22.2052691835630895
 20
6.6411937463042277
 30
0.0
 11
39.6438375938524672
 21
40.8663113093056012
 31
0.0
  0
LINE
  5
E6
  8
DRAW
 10
39.6438375938524672
 20
40.8663113093056012
 30
0.0
 11
6.5812322527053944
 21
21.3131410175812199
 31
0.0
  0
LINE
  5
E7
  8
DRAW
 10
6.5812322527053944
 20
21.3131410175812199
 30
0.0
 11
44.9740258011809999
 21
20.1065988733783314
 31
0.0
  0
LINE
  5
E8
  8
DRAW
 10
44.9740258011809999
 20
20.1065988733783314
 30
0.0
 11
13.2044156803045691
 21
41.6972036163938711
 31
0.0
  0
LINE
  5
E9
  8
DRAW
 10
13.2044156803045691
 20
41.6972036163938711
 30
0.0
 11
28.4595601465636889
 21
6.4446447345882731
 31
0.0
  0
LINE
  5
EA
  8
DRAW
 10
28.4595601465636889
 20
6.4446447345882731
 30
0.0
 11
34.4684813065797471
 21
44.3834798101982102
 31
0.0
  0
LINE
  5
EB
  8
DRAW
 10
34.4684813065797471
 20
44.3834798101982102
 30
0.0
 11
9.0663369652376034
 21
15.5704028612983105
 31
0.0
  0
LINE
  5
EC
  8
DRAW
 10
9.0663369652376034
 20
15.5704028612983105
 30
0.0
 11
45.9528954752781189
 21
26.2869387608772698
 31
0.0
  0
LINE
  5
109
  8
0
 10
-2.121392157560936
 20
-2.849057974903519
 30
0.0
 11
52.9250597939777094
 21
-2.6077583491926819
 31
0.0
  0
LINE
  5
10A
  8
0
 10
52.9250597939777094
 20
-2.6077583491926819
 30
0.0
 11
52.9250597939777094
 21
52.5292287103120117
 31
0.0
  0
LINE
  5
10B
  8
0
 10
52.9250597939777094
 20
52.5292287103120117
 30
0.0
 11
25.9528954752782788
 21
50.0324860645708398
 31
0.0
  0
ENDSEC
  0
EOF
