  0
SECTION
  2
HEADER
  9
$ACADVER
  1
AC1009
  9
$INSBASE
 10
0.0
 20
0.0
 30
0.0
  9
$EXTMIN
 10
-10.0
 20
-10.0000000000000107
 30
0.0
  9
$EXTMAX
 10
10.0000000000000195
 20
10.0000000000000302
 30
0.0
  9
$LIMMIN
 10
0.0
 20
0.0
  9
$LIMMAX
 10
12.0
 20
9.0
  9
$ORTHOMODE
 70
     0
  9
$REGENMODE
 70
     1
  9
$FILLMODE
 70
     1
  9
$QTEXTMODE
 70
     0
  9
$MIRRTEXT
 70
     0
  9
$DRAGMODE
 70
     2
  9
$LTSCALE
 40
1.0
  9
$OSMODE
 70
  3583
  9
$ATTMODE
 70
     1
  9
$TEXTSIZE
 40
0.2
  9
$TRACEWID
 40
0.05
  9
$TEXTSTYLE
  7
STANDARD
  9
$CLAYER
  8
0
  9
$CELTYPE
  6
BYLAYER
  9
$CECOLOR
 62
   256
  9
$DIMSCALE
 40
1.0
  9
$DIMASZ
 40
0.18
  9
$DIMEXO
 40
0.0625
  9
$DIMDLI
 40
0.38
  9
$DIMRND
 40
0.0
  9
$DIMDLE
 40
0.0
  9
$DIMEXE
 40
0.18
  9
$DIMTP
 40
0.0
  9
$DIMTM
 40
0.0
  9
$DIMTXT
 40
0.18
  9
$DIMCEN
 40
0.09
  9
$DIMTSZ
 40
0.0
  9
$DIMTOL
 70
     0
  9
$DIMLIM
 70
     0
  9
$DIMTIH
 70
     1
  9
$DIMTOH
 70
     1
  9
$DIMSE1
 70
     0
  9
$DIMSE2
 70
     0
  9
$DIMTAD
 70
     0
  9
$DIMZIN
 70
     0
  9
$DIMBLK
  1

  9
$DIMASO
 70
     1
  9
$DIMSHO
 70
     1
  9
$DIMPOST
  1

  9
$DIMAPOST
  1

  9
$DIMALT
 70
     0
  9
$DIMALTD
 70
     2
  9
$DIMALTF
 40
25.3999999999999986
  9
$DIMLFAC
 40
1.0
  9
$DIMTOFL
 70
     0
  9
$DIMTVP
 40
0.0
  9
$DIMTIX
 70
     0
  9
$DIMSOXD
 70
     0
  9
$DIMSAH
 70
     0
  9
$DIMBLK1
  1

  9
$DIMBLK2
  1

  9
$DIMSTYLE
  2
STANDARD
  9
$DIMCLRD
 70
     0
  9
$DIMCLRE
 70
     0
  9
$DIMCLRT
 70
     0
  9
$DIMTFAC
 40
1.0
  9
$DIMGAP
 40
0.09
  9
$LUNITS
 70
     2
  9
$LUPREC
 70
     4
  9
$SKETCHINC
 40
0.1
  9
$FILLETRAD
 40
0.0
  9
$AUNITS
 70
     0
  9
$AUPREC
 70
     0
  9
$MENU
  1
.
  9
$ELEVATION
 40
0.0
  9
$PELEVATION
 40
0.0
  9
$THICKNESS
 40
0.0
  9
$LIMCHECK
 70
     0
  9
$BLIPMODE
 70
     0
  9
$CHAMFERA
 40
0.0
  9
$CHAMFERB
 40
0.0
  9
$SKPOLY
 70
     0
  9
$TDCREATE
 40
2459369.7910648151300848
  9
$TDUPDATE
 40
2459369.7923032408580184
  9
$TDINDWG
 40
0.0012384259
  9
$TDUSRTIMER
 40
0.0012384259
  9
$USRTIMER
 70
     1
  9
$ANGBASE
 50
0.0
  9
$ANGDIR
 70
     0
  9
$PDMODE
 70
     0
  9
$PDSIZE
 40
0.0
  9
$PLINEWID
 40
0.0
  9
$COORDS
 70
     1
  9
$SPLFRAME
 70
     0
  9
$SPLINETYPE
 70
     6
  9
$SPLINESEGS
 70
     8
  9
$ATTDIA
 70
     1
  9
$ATTREQ
 70
     1
  9
$HANDLING
 70
     1
  9
$HANDSEED
  5
192
  9
$SURFTAB1
 70
     6
  9
$SURFTAB2
 70
     6
  9
$SURFTYPE
 70
     6
  9
$SURFU
 70
     6
  9
$SURFV
 70
     6
  9
$UCSNAME
  2

  9
$UCSORG
 10
0.0
 20
0.0
 30
0.0
  9
$UCSXDIR
 10
1.0
 20
0.0
 30
0.0
  9
$UCSYDIR
 10
0.0
 20
1.0
 30
0.0
  9
$PUCSNAME
  2

  9
$PUCSORG
 10
0.0
 20
0.0
 30
0.0
  9
$PUCSXDIR
 10
1.0
 20
0.0
 30
0.0
  9
$PUCSYDIR
 10
0.0
 20
1.0
 30
0.0
  9
$USERI1
 70
     0
  9
$USERI2
 70
     0
  9
$USERI3
 70
     0
  9
$USERI4
 70
     0
  9
$USERI5
 70
     0
  9
$USERR1
 40
0.0
  9
$USERR2
 40
0.0
  9
$USERR3
 40
0.0
  9
$USERR4
 40
0.0
  9
$USERR5
 40
0.0
  9
$WORLDVIEW
 70
     1
  9
$SHADEDGE
 70
     3
  9
$SHADEDIF
 70
    70
  9
$TILEMODE
 70
     1
  9
$MAXACTVP
 70
    64
  9
$PLIMCHECK
 70
     0
  9
$PEXTMIN
 10
1.0000000000000000E+20
 20
1.0000000000000000E+20
 30
1.0000000000000000E+20
  9
$PEXTMAX
 10
-1.0000000000000000E+20
 20
-1.0000000000000000E+20
 30
-1.0000000000000000E+20
  9
$PLIMMIN
 10
0.0
 20
0.0
  9
$PLIMMAX
 10
12.0
 20
9.0
  9
$UNITMODE
 70
     0
  9
$VISRETAIN
 70
     1
  9
$PLINEGEN
 70
     0
  9
$PSLTSCALE
 70
     1
  0
ENDSEC
  0
SECTION
  2
TABLES
  0
TABLE
  2
VPORT
 70
     1
  0
VPORT
  2
*ACTIVE
 70
     0
 10
0.0
 20
0.0
 11
1.0
 21
1.0
 12
12.8368070218996202
 22
3.4758218264834388
 13
0.0
 23
0.0
 14
1.0
 24
1.0
 15
0.0
 25
0.0
 16
0.0
 26
0.0
 36
120.6688161537367989
 17
-7.020381998217867
 27
-1.2253504058239919
 37
0.0
 40
18.7491449517137916
 41
1.876905041031653
 42
50.0
 43
0.0
 44
0.0
 50
0.0
 51
0.0
 71
     0
 72
   100
 73
     1
 74
     0
 75
     1
 76
     0
 77
     0
 78
     0
  0
ENDTAB
  0
TABLE
  2
LTYPE
 70
     1
  0
LTYPE
  2
CONTINUOUS
 70
     0
  3
Solid line
 72
    65
 73
     0
 40
0.0
  0
ENDTAB
  0
TABLE
  2
LAYER
 70
     4
  0
LAYER
  2
0
 70
     0
 62
     7
  6
CONTINUOUS
  0
LAYER
  2
WHEELFLATSHAFT_V5_SKETCH1
 70
     0
 62
     7
  6
CONTINUOUS
  0
LAYER
  2
WHEELFLATSHAFT_V5_SKETCH2
 70
     0
 62
     7
  6
CONTINUOUS
  0
LAYER
  2
ADSK_ASSOC_ENTITY_BACKUPS
 70
     5
 62
    -7
  6
CONTINUOUS
  0
ENDTAB
  0
TABLE
  2
STYLE
 70
     2
  0
STYLE
  2
STANDARD
 70
     0
 40
0.0
 41
1.0
 50
0.0
 71
     0
 42
0.2
  3
txt
  4

  0
STYLE
  2
ANNOTATIVE
 70
     0
 40
0.0
 41
1.0
 50
0.0
 71
     0
 42
0.2
  3
txt
  4

  0
ENDTAB
  0
TABLE
  2
VIEW
 70
     0
  0
ENDTAB
  0
TABLE
  2
UCS
 70
     0
  0
ENDTAB
  0
TABLE
  2
APPID
 70
     6
  0
APPID
  2
ACAD
 70
     0
  0
APPID
  2
ACADANNOTATIVE
 70
     0
  0
APPID
  2
EDIT_IN_FUSION_ACAD_ADDIN
 70
     0
  0
APPID
  2
NFUSION_SKETCHTRANSFORM
 70
     0
  0
APPID
  2
ACAD_NAV_VCDISPLAY
 70
     0
  0
APPID
  2
ACAD_MLEADERVER
 70
     0
  0
ENDTAB
  0
TABLE
  2
DIMSTYLE
 70
     2
  0
DIMSTYLE
  2
STANDARD
 70
     0
  3

  4

  5

  6

  7

 40
1.0
 41
0.18
 42
0.0625
 43
0.38
 44
0.18
 45
0.0
 46
0.0
 47
0.0
 48
0.0
140
0.18
141
0.09
142
0.0
143
25.3999999999999986
144
1.0
145
0.0
146
1.0
147
0.09
 71
     0
 72
     0
 73
     1
 74
     1
 75
     0
 76
     0
 77
     0
 78
     0
170
     0
171
     2
172
     0
173
     0
174
     0
175
     0
176
     0
177
     0
178
     0
  0
DIMSTYLE
  2
ANNOTATIVE
 70
     0
  3

  4

  5

  6

  7

 40
1.0
 41
0.18
 42
0.0625
 43
0.38
 44
0.18
 45
0.0
 46
0.0
 47
0.0
 48
0.0
140
0.18
141
0.09
142
0.0
143
25.3999999999999986
144
1.0
145
0.0
146
1.0
147
0.09
 71
     0
 72
     0
 73
     1
 74
     1
 75
     0
 76
     0
 77
     0
 78
     0
170
     0
171
     2
172
     0
173
     0
174
     0
175
     0
176
     0
177
     0
178
     0
  0
ENDTAB
  0
ENDSEC
  0
SECTION
  2
BLOCKS
  0
BLOCK
  8
0
  2
$MODEL_SPACE
 70
     0
 10
0.0
 20
0.0
 30
0.0
  3
$MODEL_SPACE
  1

  0
ENDBLK
  5
72
  8
0
  0
BLOCK
 67
     1
  8
0
  2
$PAPER_SPACE
 70
     0
 10
0.0
 20
0.0
 30
0.0
  3
$PAPER_SPACE
  1

  0
ENDBLK
  5
6E
 67
     1
  8
0
  0
BLOCK
  8
0
  2
*U1
 70
     1
 10
0.0
 20
0.0
 30
0.0
  3
*U1
  1

  0
LINE
  5
117
  8
0
 10
5.0
 20
0.0
 30
0.0
 11
-14.6592582628906705
 21
2.5881904510252309
 31
0.0
  0
ENDBLK
  5
D8
  8
0
  0
BLOCK
  8
0
  2
*U2
 70
     1
 10
0.0
 20
0.0
 30
0.0
  3
*U2
  1

  0
INSERT
  5
EE
  8
0
  6
BYBLOCK
 62
     0
  2
*U1
 10
4.8296291314453406
 20
1.294095225512603
 30
0.0
 41
1.0
 42
1.0
 43
1.0
 50
14.9999999999999698
  0
INSERT
  5
EF
  8
0
  6
BYBLOCK
 62
     0
  2
*U1
 10
4.3301270189221928
 20
2.4999999999999991
 30
0.0
 41
1.0
 42
1.0
 43
1.0
 50
29.9999999999999396
  0
INSERT
  5
F0
  8
0
  6
BYBLOCK
 62
     0
  2
*U1
 10
3.5355339059327382
 20
3.5355339059327369
 30
0.0
 50
44.9999999999999218
  0
INSERT
  5
F1
  8
0
  6
BYBLOCK
 62
     0
  2
*U1
 10
2.5
 20
4.3301270189221919
 30
0.0
 41
1.0
 42
1.0
 43
1.0
 50
59.9999999999998934
  0
INSERT
  5
F2
  8
0
  6
BYBLOCK
 62
     0
  2
*U1
 10
1.2940952255126039
 20
4.8296291314453397
 30
0.0
 41
1.0
 42
1.0
 43
1.0
 50
74.9999999999998437
  0
INSERT
  5
F3
  8
0
  6
BYBLOCK
 62
     0
  2
*U1
 10
0.0000000000000014
 20
5.0
 30
0.0
 41
1.0
 42
1.0
 43
1.0
 50
89.9999999999998437
  0
INSERT
  5
F4
  8
0
  6
BYBLOCK
 62
     0
  2
*U1
 10
-1.294095225512601
 20
4.8296291314453423
 30
0.0
 41
1.0
 42
1.0
 43
1.0
 50
104.999999999999801
  0
INSERT
  5
F5
  8
0
  6
BYBLOCK
 62
     0
  2
*U1
 10
-2.4999999999999991
 20
4.3301270189221928
 30
0.0
 41
1.0
 42
1.0
 43
1.0
 50
119.999999999999801
  0
INSERT
  5
F6
  8
0
  6
BYBLOCK
 62
     0
  2
*U1
 10
-3.5355339059327369
 20
3.5355339059327369
 30
0.0
 41
1.0
 42
1.0
 43
1.0
 50
134.9999999999998863
  0
INSERT
  5
F7
  8
0
  6
BYBLOCK
 62
     0
  2
*U1
 10
-4.3301270189221919
 20
2.5000000000000009
 30
0.0
 41
1.0
 42
1.0
 43
1.0
 50
149.999999999999801
  0
INSERT
  5
F8
  8
0
  6
BYBLOCK
 62
     0
  2
*U1
 10
-4.8296291314453397
 20
1.294095225512607
 30
0.0
 41
1.0
 42
1.0
 43
1.0
 50
164.9999999999996874
  0
INSERT
  5
F9
  8
0
  6
BYBLOCK
 62
     0
  2
*U1
 10
-5.0
 20
0.0000000000000028
 30
0.0
 41
1.0
 42
1.0
 43
1.0
 50
180.0
  0
INSERT
  5
FA
  8
0
  6
BYBLOCK
 62
     0
  2
*U1
 10
-4.8296291314453423
 20
-1.294095225512599
 30
0.0
 41
1.0
 42
1.0
 43
1.0
 50
194.9999999999996874
  0
INSERT
  5
FB
  8
0
  6
BYBLOCK
 62
     0
  2
*U1
 10
-4.3301270189221954
 20
-2.499999999999996
 30
0.0
 41
1.0
 42
1.0
 43
1.0
 50
209.9999999999996874
  0
INSERT
  5
FC
  8
0
  6
BYBLOCK
 62
     0
  2
*U1
 10
-3.5355339059327391
 20
-3.5355339059327351
 30
0.0
 50
224.9999999999996021
  0
INSERT
  5
FD
  8
0
  6
BYBLOCK
 62
     0
  2
*U1
 10
-2.5000000000000022
 20
-4.3301270189221919
 30
0.0
 41
1.0
 42
1.0
 43
1.0
 50
239.9999999999996021
  0
INSERT
  5
FE
  8
0
  6
BYBLOCK
 62
     0
  2
*U1
 10
-1.294095225512607
 20
-4.8296291314453397
 30
0.0
 50
254.9999999999994884
  0
INSERT
  5
FF
  8
0
  6
BYBLOCK
 62
     0
  2
*U1
 10
-0.0000000000000009
 20
-5.0
 30
0.0
 41
1.0
 42
1.0
 43
1.0
 50
269.9999999999994884
  0
INSERT
  5
100
  8
0
  6
BYBLOCK
 62
     0
  2
*U1
 10
1.294095225512601
 20
-4.8296291314453423
 30
0.0
 41
1.0
 42
1.0
 43
1.0
 50
284.9999999999994884
  0
INSERT
  5
101
  8
0
  6
BYBLOCK
 62
     0
  2
*U1
 10
2.499999999999996
 20
-4.3301270189221954
 30
0.0
 41
1.0
 42
1.0
 43
1.0
 50
299.9999999999993747
  0
INSERT
  5
102
  8
0
  6
BYBLOCK
 62
     0
  2
*U1
 10
3.5355339059327342
 20
-3.5355339059327409
 30
0.0
 41
1.0
 42
1.0
 43
1.0
 50
314.9999999999993747
  0
INSERT
  5
103
  8
0
  6
BYBLOCK
 62
     0
  2
*U1
 10
4.3301270189221892
 20
-2.5000000000000062
 30
0.0
 41
1.0
 42
1.0
 43
1.0
 50
329.9999999999993747
  0
INSERT
  5
104
  8
0
  6
BYBLOCK
 62
     0
  2
*U1
 10
4.8296291314453397
 20
-1.294095225512607
 30
0.0
 41
1.0
 42
1.0
 43
1.0
 50
344.9999999999993747
  0
INSERT
  5
118
  8
0
  6
BYBLOCK
 62
     0
  2
*U1
 10
5.0
 20
0.0
 30
0.0
  0
ENDBLK
  5
DB
  8
0
  0
ENDSEC
  0
SECTION
  2
ENTITIES
  0
LINE
  5
119
  8
0
 10
10.0
 20
0.0
 30
0.0
 11
-9.6592582628906776
 21
2.5881904510252309
 31
0.0
  0
LINE
  5
11A
  8
0
 10
9.6592582628906847
 20
2.5881904510252061
 30
0.0
 11
-10.0
 21
0.0000000000000289
 31
0.0
  0
LINE
  5
11B
  8
0
 10
8.6602540378443909
 20
4.9999999999999956
 30
0.0
 11
-9.6592582628906989
 21
-2.5881904510251741
 31
0.0
  0
LINE
  5
11C
  8
0
 10
7.0710678118654808
 20
7.0710678118654702
 30
0.0
 11
-8.6602540378444122
 21
-4.9999999999999662
 31
0.0
  0
LINE
  5
11D
  8
0
 10
5.000000000000008
 20
8.6602540378443802
 30
0.0
 11
-7.0710678118655181
 21
-7.0710678118654471
 31
0.0
  0
LINE
  5
11E
  8
0
 10
2.5881904510252198
 20
9.6592582628906811
 30
0.0
 11
-5.0000000000000551
 21
-8.6602540378443678
 31
0.0
  0
LINE
  5
11F
  8
0
 10
0.000000000000016
 20
10.0
 30
0.0
 11
-2.5881904510252731
 21
-9.6592582628906793
 31
0.0
  0
LINE
  5
120
  8
0
 10
-2.5881904510251932
 20
9.6592582628906882
 30
0.0
 11
-0.0000000000000591
 21
-10.0000000000000107
 31
0.0
  0
LINE
  5
121
  8
0
 10
-4.9999999999999893
 20
8.6602540378443926
 30
0.0
 11
2.5881904510251559
 21
-9.6592582628907095
 31
0.0
  0
LINE
  5
122
  8
0
 10
-7.0710678118654666
 20
7.0710678118654844
 30
0.0
 11
4.9999999999999574
 21
-8.6602540378444246
 31
0.0
  0
LINE
  5
123
  8
0
 10
-8.6602540378443802
 20
5.0000000000000151
 30
0.0
 11
7.0710678118654409
 21
-7.0710678118655297
 31
0.0
  0
LINE
  5
124
  8
0
 10
-9.6592582628906776
 20
2.5881904510252318
 30
0.0
 11
8.6602540378443607
 21
-5.000000000000079
 31
0.0
  0
LINE
  5
125
  8
0
 10
-10.0
 20
0.0000000000000245
 30
0.0
 11
9.6592582628906793
 21
-2.5881904510252922
 31
0.0
  0
LINE
  5
126
  8
0
 10
-9.6592582628906918
 20
-2.588190451025179
 30
0.0
 11
10.0000000000000195
 21
-0.0000000000000895
 31
0.0
  0
LINE
  5
127
  8
0
 10
-8.6602540378444033
 20
-4.9999999999999734
 30
0.0
 11
9.6592582628907273
 21
2.5881904510251199
 31
0.0
  0
LINE
  5
128
  8
0
 10
-7.0710678118654968
 20
-7.0710678118654533
 30
0.0
 11
8.6602540378444566
 21
4.9999999999999201
 31
0.0
  0
LINE
  5
129
  8
0
 10
-5.0000000000000302
 20
-8.6602540378443713
 30
0.0
 11
7.0710678118655732
 21
7.0710678118654178
 31
0.0
  0
LINE
  5
12A
  8
0
 10
-2.58819045102525
 20
-9.6592582628906722
 30
0.0
 11
5.0000000000001332
 21
8.6602540378443447
 31
0.0
  0
LINE
  5
12B
  8
0
 10
-0.0000000000000402
 20
-10.0
 30
0.0
 11
2.5881904510253451
 21
9.6592582628906793
 31
0.0
  0
LINE
  5
12C
  8
0
 10
2.5881904510251621
 20
-9.6592582628906971
 30
0.0
 11
0.0000000000001483
 21
10.0000000000000302
 31
0.0
  0
LINE
  5
12D
  8
0
 10
4.999999999999952
 20
-8.6602540378444157
 30
0.0
 11
-2.5881904510250582
 21
9.6592582628907664
 31
0.0
  0
LINE
  5
12E
  8
0
 10
7.0710678118654338
 20
-7.0710678118655181
 30
0.0
 11
-4.9999999999998721
 21
8.6602540378445081
 31
0.0
  0
LINE
  5
12F
  8
0
 10
8.6602540378443553
 20
-5.0000000000000551
 30
0.0
 11
-7.0710678118653814
 21
7.0710678118656292
 31
0.0
  0
LINE
  5
130
  8
0
 10
9.6592582628906687
 20
-2.5881904510252638
 30
0.0
 11
-8.660254037844334
 21
5.0000000000001723
 31
0.0
  0
ENDSEC
  0
EOF
