  0
SECTION
  2
HEADER
  9
$ACADVER
  1
AC1009
  9
$INSBASE
 10
0.0
 20
0.0
 30
0.0
  9
$EXTMIN
 10
-11.0
 20
-10.9782940127109896
 30
0.0
  9
$EXTMAX
 10
21.0
 20
10.9782940127109807
 30
0.0
  9
$LIMMIN
 10
0.0
 20
0.0
  9
$LIMMAX
 10
420.0
 20
297.0
  9
$ORTHOMODE
 70
     0
  9
$REGENMODE
 70
     1
  9
$FILLMODE
 70
     1
  9
$QTEXTMODE
 70
     0
  9
$MIRRTEXT
 70
     1
  9
$DRAGMODE
 70
     2
  9
$LTSCALE
 40
1.0
  9
$OSMODE
 70
  3583
  9
$ATTMODE
 70
     1
  9
$TEXTSIZE
 40
2.5
  9
$TRACEWID
 40
1.0
  9
$TEXTSTYLE
  7
OPENSANS
  9
$CLAYER
  8
0
  9
$CELTYPE
  6
BYLAYER
  9
$CECOLOR
 62
   256
  9
$DIMSCALE
 40
1.0
  9
$DIMASZ
 40
0.175
  9
$DIMEXO
 40
0.125
  9
$DIMDLI
 40
3.75
  9
$DIMRND
 40
0.0
  9
$DIMDLE
 40
0.0
  9
$DIMEXE
 40
0.375
  9
$DIMTP
 40
0.0
  9
$DIMTM
 40
0.0
  9
$DIMTXT
 40
0.25
  9
$DIMCEN
 40
2.5
  9
$DIMTSZ
 40
0.0
  9
$DIMTOL
 70
     0
  9
$DIMLIM
 70
     0
  9
$DIMTIH
 70
     0
  9
$DIMTOH
 70
     0
  9
$DIMSE1
 70
     0
  9
$DIMSE2
 70
     0
  9
$DIMTAD
 70
     1
  9
$DIMZIN
 70
     8
  9
$DIMBLK
  1
ARCHTICK
  9
$DIMASO
 70
     1
  9
$DIMSHO
 70
     1
  9
$DIMPOST
  1

  9
$DIMAPOST
  1

  9
$DIMALT
 70
     0
  9
$DIMALTD
 70
     3
  9
$DIMALTF
 40
0.03937007874
  9
$DIMLFAC
 40
100.0
  9
$DIMTOFL
 70
     1
  9
$DIMTVP
 40
0.0
  9
$DIMTIX
 70
     0
  9
$DIMSOXD
 70
     0
  9
$DIMSAH
 70
     0
  9
$DIMBLK1
  1

  9
$DIMBLK2
  1

  9
$DIMSTYLE
  2
EZDXF
  9
$DIMCLRD
 70
     0
  9
$DIMCLRE
 70
     0
  9
$DIMCLRT
 70
     0
  9
$DIMTFAC
 40
1.0
  9
$DIMGAP
 40
0.1
  9
$LUNITS
 70
     2
  9
$LUPREC
 70
     4
  9
$SKETCHINC
 40
1.0
  9
$FILLETRAD
 40
10.0
  9
$AUNITS
 70
     0
  9
$AUPREC
 70
     2
  9
$MENU
  1
.
  9
$ELEVATION
 40
0.0
  9
$PELEVATION
 40
0.0
  9
$THICKNESS
 40
0.0
  9
$LIMCHECK
 70
     0
  9
$BLIPMODE
 70
     0
  9
$CHAMFERA
 40
0.0
  9
$CHAMFERB
 40
0.0
  9
$SKPOLY
 70
     0
  9
$TDCREATE
 40
2458531.9039930561557412
  9
$TDUPDATE
 40
2459368.9673842592164874
  9
$TDINDWG
 40
0.0018634259
  9
$TDUSRTIMER
 40
0.0018634259
  9
$USRTIMER
 70
     1
  9
$ANGBASE
 50
0.0
  9
$ANGDIR
 70
     0
  9
$PDMODE
 70
     0
  9
$PDSIZE
 40
0.0
  9
$PLINEWID
 40
0.0
  9
$COORDS
 70
     1
  9
$SPLFRAME
 70
     0
  9
$SPLINETYPE
 70
     6
  9
$SPLINESEGS
 70
     8
  9
$ATTDIA
 70
     1
  9
$ATTREQ
 70
     1
  9
$HANDLING
 70
     1
  9
$HANDSEED
  5
1E0
  9
$SURFTAB1
 70
     6
  9
$SURFTAB2
 70
     6
  9
$SURFTYPE
 70
     6
  9
$SURFU
 70
     6
  9
$SURFV
 70
     6
  9
$UCSNAME
  2

  9
$UCSORG
 10
0.0
 20
0.0
 30
0.0
  9
$UCSXDIR
 10
1.0
 20
0.0
 30
0.0
  9
$UCSYDIR
 10
0.0
 20
1.0
 30
0.0
  9
$PUCSNAME
  2

  9
$PUCSORG
 10
0.0
 20
0.0
 30
0.0
  9
$PUCSXDIR
 10
1.0
 20
0.0
 30
0.0
  9
$PUCSYDIR
 10
0.0
 20
1.0
 30
0.0
  9
$USERI1
 70
     0
  9
$USERI2
 70
     0
  9
$USERI3
 70
     0
  9
$USERI4
 70
     0
  9
$USERI5
 70
     0
  9
$USERR1
 40
0.0
  9
$USERR2
 40
0.0
  9
$USERR3
 40
0.0
  9
$USERR4
 40
0.0
  9
$USERR5
 40
0.0
  9
$WORLDVIEW
 70
     1
  9
$SHADEDGE
 70
     3
  9
$SHADEDIF
 70
    70
  9
$TILEMODE
 70
     1
  9
$MAXACTVP
 70
    64
  9
$PLIMCHECK
 70
     0
  9
$PEXTMIN
 10
1.0000000000000000E+20
 20
1.0000000000000000E+20
 30
1.0000000000000000E+20
  9
$PEXTMAX
 10
-1.0000000000000000E+20
 20
-1.0000000000000000E+20
 30
-1.0000000000000000E+20
  9
$PLIMMIN
 10
0.0
 20
0.0
  9
$PLIMMAX
 10
420.0
 20
297.0
  9
$UNITMODE
 70
     0
  9
$VISRETAIN
 70
     1
  9
$PLINEGEN
 70
     0
  9
$PSLTSCALE
 70
     1
  0
ENDSEC
  0
SECTION
  2
TABLES
  0
TABLE
  2
VPORT
 70
     1
  0
VPORT
  2
*ACTIVE
 70
     0
 10
0.0
 20
0.0
 11
1.0
 21
1.0
 12
2.0214704234569458
 22
-1.006185746467775
 13
0.0
 23
0.0
 14
0.5
 24
0.5
 15
0.5
 25
0.5
 16
0.0
 26
0.0
 36
1.0
 17
0.0
 27
0.0
 37
0.0
 40
29.0307263784603009
 41
1.876905041031653
 42
50.0
 43
0.0
 44
0.0
 50
0.0
 51
0.0
 71
     0
 72
  1000
 73
     1
 74
     3
 75
     0
 76
     0
 77
     0
 78
     0
  0
ENDTAB
  0
TABLE
  2
LTYPE
 70
    19
  0
LTYPE
  2
CONTINUOUS
 70
     0
  3

 72
    65
 73
     0
 40
0.0
  0
LTYPE
  2
CENTER
 70
     0
  3
Center ____ _ ____ _ ____ _ ____ _ ____ _ ____
 72
    65
 73
     4
 40
5.0800000000000001
 49
3.1749999999999989
 49
-0.635
 49
0.635
 49
-0.635
  0
LTYPE
  2
CENTERX2
 70
     0
  3
Center (2x) ________  __  ________  __  ________
 72
    65
 73
     4
 40
8.8900000000000006
 49
6.3499999999999988
 49
-0.635
 49
1.27
 49
-0.635
  0
LTYPE
  2
CENTER2
 70
     0
  3
Center (.5x) ____ _ ____ _ ____ _ ____ _ ____
 72
    65
 73
     4
 40
2.54
 49
1.5869999999999991
 49
-0.318
 49
0.318
 49
-0.318
  0
LTYPE
  2
DASHED
 70
     0
  3
Dashed __ __ __ __ __ __ __ __ __ __ __ __ __ _
 72
    65
 73
     2
 40
1.524
 49
1.27
 49
-0.254
  0
LTYPE
  2
DASHEDX2
 70
     0
  3
Dashed (2x) ____  ____  ____  ____  ____  ____
 72
    65
 73
     2
 40
3.048
 49
2.54
 49
-0.508
  0
LTYPE
  2
DASHED2
 70
     0
  3
Dashed (.5x) _ _ _ _ _ _ _ _ _ _ _ _ _ _
 72
    65
 73
     2
 40
0.762
 49
0.635
 49
-0.127
  0
LTYPE
  2
PHANTOM
 70
     0
  3
Phantom ______  __  __  ______  __  __  ______
 72
    65
 73
     6
 40
6.3499999999999988
 49
3.1749999999999989
 49
-0.635
 49
0.635
 49
-0.635
 49
0.635
 49
-0.635
  0
LTYPE
  2
PHANTOMX2
 70
     0
  3
Phantom (2x)____________    ____    ____    ____________
 72
    65
 73
     6
 40
10.7949999999999999
 49
6.3499999999999988
 49
-0.635
 49
1.27
 49
-0.635
 49
1.27
 49
-0.635
  0
LTYPE
  2
PHANTOM2
 70
     0
  3
Phantom (.5x) ___ _ _ ___ _ _ ___ _ _ ___ _ _ ___
 72
    65
 73
     6
 40
3.1749999999999989
 49
1.5869999999999991
 49
-0.318
 49
0.318
 49
-0.318
 49
0.318
 49
-0.318
  0
LTYPE
  2
DASHDOT
 70
     0
  3
Dash dot __ . __ . __ . __ . __ . __ . __ . __
 72
    65
 73
     4
 40
3.556
 49
2.54
 49
-0.508
 49
0.0
 49
-0.508
  0
LTYPE
  2
DASHDOTX2
 70
     0
  3
Dash dot (2x) ____  .  ____  .  ____  .  ____
 72
    65
 73
     4
 40
6.0960000000000001
 49
5.0800000000000001
 49
-0.508
 49
0.0
 49
-0.508
  0
LTYPE
  2
DASHDOT2
 70
     0
  3
Dash dot (.5x) _ . _ . _ . _ . _ . _ . _ . _
 72
    65
 73
     4
 40
1.778
 49
1.27
 49
-0.254
 49
0.0
 49
-0.254
  0
LTYPE
  2
DOT
 70
     0
  3
Dot .  .  .  .  .  .  .  .  .  .  .  .  .  .  .  .
 72
    65
 73
     2
 40
0.508
 49
0.0
 49
-0.508
  0
LTYPE
  2
DOTX2
 70
     0
  3
Dot (2x) .    .    .    .    .    .    .    . 
 72
    65
 73
     2
 40
1.016
 49
0.0
 49
-1.016
  0
LTYPE
  2
DOT2
 70
     0
  3
Dot (.5) . . . . . . . . . . . . . . . . . . . 
 72
    65
 73
     2
 40
0.254
 49
0.0
 49
-0.254
  0
LTYPE
  2
DIVIDE
 70
     0
  3
Divide __ . . __ . . __ . . __ . . __ . . __
 72
    65
 73
     6
 40
4.0640000000000001
 49
2.54
 49
-0.508
 49
0.0
 49
-0.508
 49
0.0
 49
-0.508
  0
LTYPE
  2
DIVIDEX2
 70
     0
  3
Divide (2x) ____  . .  ____  . .  ____  . .  ____
 72
    65
 73
     6
 40
6.6040000000000001
 49
5.0800000000000001
 49
-0.508
 49
0.0
 49
-0.508
 49
0.0
 49
-0.508
  0
LTYPE
  2
DIVIDE2
 70
     0
  3
Divide(.5x) _ . _ . _ . _ . _ . _ . _ . _
 72
    65
 73
     6
 40
2.032
 49
1.27
 49
-0.254
 49
0.0
 49
-0.254
 49
0.0
 49
-0.254
  0
ENDTAB
  0
TABLE
  2
LAYER
 70
     5
  0
LAYER
  2
0
 70
     0
 62
     7
  6
CONTINUOUS
  0
LAYER
  2
DEFPOINTS
 70
     0
 62
     7
  6
CONTINUOUS
  0
LAYER
  2
SKIP
 70
     0
 62
     1
  6
CONTINUOUS
  0
LAYER
  2
DRAW
 70
     0
 62
     2
  6
CONTINUOUS
  0
LAYER
  2
ADSK_ASSOC_ENTITY_BACKUPS
 70
     5
 62
    -7
  6
CONTINUOUS
  0
ENDTAB
  0
TABLE
  2
STYLE
 70
    26
  0
STYLE
  2
STANDARD
 70
     0
 40
0.0
 41
1.0
 50
0.0
 71
     0
 42
2.5
  3
txt
  4

  0
STYLE
  2
OPENSANS-LIGHT
 70
     0
 40
0.0
 41
1.0
 50
0.0
 71
     0
 42
2.5
  3
txt
  4

  0
STYLE
  2
OPENSANS-LIGHT-ITALIC
 70
     0
 40
0.0
 41
1.0
 50
0.0
 71
     0
 42
2.5
  3
txt
  4

  0
STYLE
  2
OPENSANS
 70
     0
 40
0.0
 41
1.0
 50
0.0
 71
     0
 42
2.5
  3
txt
  4

  0
STYLE
  2
OPENSANS-ITALIC
 70
     0
 40
0.0
 41
1.0
 50
0.0
 71
     0
 42
2.5
  3
txt
  4

  0
STYLE
  2
OPENSANS-SEMIBOLD
 70
     0
 40
0.0
 41
1.0
 50
0.0
 71
     0
 42
2.5
  3
txt
  4

  0
STYLE
  2
OPENSANS-SEMIBOLDITALIC
 70
     0
 40
0.0
 41
1.0
 50
0.0
 71
     0
 42
2.5
  3
txt
  4

  0
STYLE
  2
OPENSANS-BOLD
 70
     0
 40
0.0
 41
1.0
 50
0.0
 71
     0
 42
2.5
  3
txt
  4

  0
STYLE
  2
OPENSANS-BOLDITALIC
 70
     0
 40
0.0
 41
1.0
 50
0.0
 71
     0
 42
2.5
  3
txt
  4

  0
STYLE
  2
OPENSANS-EXTRABOLD
 70
     0
 40
0.0
 41
1.0
 50
0.0
 71
     0
 42
2.5
  3
txt
  4

  0
STYLE
  2
OPENSANS-EXTRABOLDITALIC
 70
     0
 40
0.0
 41
1.0
 50
0.0
 71
     0
 42
2.5
  3
txt
  4

  0
STYLE
  2
OPENSANSCONDENSED-BOLD
 70
     0
 40
0.0
 41
1.0
 50
0.0
 71
     0
 42
2.5
  3
txt
  4

  0
STYLE
  2
OPENSANSCONDENSED-LIGHT
 70
     0
 40
0.0
 41
1.0
 50
0.0
 71
     0
 42
2.5
  3
txt
  4

  0
STYLE
  2
OPENSANSCONDENSED-ITALIC
 70
     0
 40
0.0
 41
1.0
 50
0.0
 71
     0
 42
2.5
  3
txt
  4

  0
STYLE
  2
LIBERATIONSANS
 70
     0
 40
0.0
 41
1.0
 50
0.0
 71
     0
 42
2.5
  3
txt
  4

  0
STYLE
  2
LIBERATIONSANS-BOLD
 70
     0
 40
0.0
 41
1.0
 50
0.0
 71
     0
 42
2.5
  3
txt
  4

  0
STYLE
  2
LIBERATIONSANS-BOLDITALIC
 70
     0
 40
0.0
 41
1.0
 50
0.0
 71
     0
 42
2.5
  3
txt
  4

  0
STYLE
  2
LIBERATIONSANS-ITALIC
 70
     0
 40
0.0
 41
1.0
 50
0.0
 71
     0
 42
2.5
  3
txt
  4

  0
STYLE
  2
LIBERATIONSERIF
 70
     0
 40
0.0
 41
1.0
 50
0.0
 71
     0
 42
2.5
  3
txt
  4

  0
STYLE
  2
LIBERATIONSERIF-BOLD
 70
     0
 40
0.0
 41
1.0
 50
0.0
 71
     0
 42
2.5
  3
txt
  4

  0
STYLE
  2
LIBERATIONSERIF-BOLDITALIC
 70
     0
 40
0.0
 41
1.0
 50
0.0
 71
     0
 42
2.5
  3
txt
  4

  0
STYLE
  2
LIBERATIONSERIF-ITALIC
 70
     0
 40
0.0
 41
1.0
 50
0.0
 71
     0
 42
2.5
  3
txt
  4

  0
STYLE
  2
LIBERATIONMONO
 70
     0
 40
0.0
 41
1.0
 50
0.0
 71
     0
 42
2.5
  3
txt
  4

  0
STYLE
  2
LIBERATIONMONO-BOLD
 70
     0
 40
0.0
 41
1.0
 50
0.0
 71
     0
 42
2.5
  3
txt
  4

  0
STYLE
  2
LIBERATIONMONO-BOLDITALIC
 70
     0
 40
0.0
 41
1.0
 50
0.0
 71
     0
 42
2.5
  3
txt
  4

  0
STYLE
  2
LIBERATIONMONO-ITALIC
 70
     0
 40
0.0
 41
1.0
 50
0.0
 71
     0
 42
2.5
  3
txt
  4

  0
ENDTAB
  0
TABLE
  2
VIEW
 70
     0
  0
ENDTAB
  0
TABLE
  2
UCS
 70
     0
  0
ENDTAB
  0
TABLE
  2
APPID
 70
     4
  0
APPID
  2
ACAD
 70
     0
  0
APPID
  2
HATCHBACKGROUNDCOLOR
 70
     0
  0
APPID
  2
ACAD_NAV_VCDISPLAY
 70
     0
  0
APPID
  2
ACAD_MLEADERVER
 70
     0
  0
ENDTAB
  0
TABLE
  2
DIMSTYLE
 70
    11
  0
DIMSTYLE
  2
STANDARD
 70
     0
  3

  4

  5

  6

  7

 40
1.0
 41
2.5
 42
0.625
 43
3.75
 44
1.25
 45
0.0
 46
0.0
 47
0.0
 48
0.0
140
2.5
141
2.5
142
0.0
143
0.03937007874
144
1.0
145
0.0
146
1.0
147
0.625
 71
     0
 72
     0
 73
     0
 74
     0
 75
     0
 76
     0
 77
     1
 78
     8
170
     0
171
     3
172
     1
173
     0
174
     0
175
     0
176
     0
177
     0
178
     0
  0
DIMSTYLE
  2
EZDXF
 70
     0
  3

  4

  5
ARCHTICK
  6

  7

 40
1.0
 41
0.175
 42
0.125
 43
3.75
 44
0.375
 45
0.0
 46
0.0
 47
0.0
 48
0.0
140
0.25
141
2.5
142
0.0
143
0.03937007874
144
100.0
145
0.0
146
1.0
147
0.1
 71
     0
 72
     0
 73
     0
 74
     0
 75
     0
 76
     0
 77
     1
 78
     8
170
     0
171
     3
172
     1
173
     0
174
     0
175
     0
176
     0
177
     0
178
     0
  0
DIMSTYLE
  2
EZ_M_100_H25_CM
 70
     0
  3

  4

  5

  6

  7

 40
1.0
 41
0.25
 42
0.125
 43
3.75
 44
0.375
 45
0.0
 46
0.0
 47
0.0
 48
0.0
140
0.25
141
2.5
142
0.125
143
0.03937007874
144
100.0
145
0.0
146
1.0
147
0.1
 71
     0
 72
     0
 73
     0
 74
     0
 75
     0
 76
     0
 77
     1
 78
     8
170
     0
171
     3
172
     1
173
     0
174
     0
175
     0
176
     0
177
     0
178
     0
  0
DIMSTYLE
  2
EZ_M_50_H25_CM
 70
     0
  3

  4

  5

  6

  7

 40
1.0
 41
0.125
 42
0.0625
 43
3.75
 44
0.1875
 45
0.0
 46
0.0
 47
0.0
 48
0.0
140
0.125
141
2.5
142
0.0625
143
0.03937007874
144
100.0
145
0.0
146
1.0
147
0.05
 71
     0
 72
     0
 73
     0
 74
     0
 75
     0
 76
     0
 77
     1
 78
     8
170
     0
171
     3
172
     1
173
     0
174
     0
175
     0
176
     0
177
     0
178
     0
  0
DIMSTYLE
  2
EZ_M_25_H25_CM
 70
     0
  3

  4

  5

  6

  7

 40
1.0
 41
0.0625
 42
0.03125
 43
3.75
 44
0.09375
 45
0.0
 46
0.0
 47
0.0
 48
0.0
140
0.0625
141
2.5
142
0.03125
143
0.03937007874
144
100.0
145
0.0
146
1.0
147
0.025
 71
     0
 72
     0
 73
     0
 74
     0
 75
     0
 76
     0
 77
     1
 78
     8
170
     0
171
     3
172
     1
173
     0
174
     0
175
     0
176
     0
177
     0
178
     0
  0
DIMSTYLE
  2
EZ_M_20_H25_CM
 70
     0
  3

  4

  5

  6

  7

 40
1.0
 41
0.05
 42
0.025
 43
3.75
 44
0.075
 45
0.0
 46
0.0
 47
0.0
 48
0.0
140
0.05
141
2.5
142
0.025
143
0.03937007874
144
100.0
145
0.0
146
1.0
147
0.02
 71
     0
 72
     0
 73
     0
 74
     0
 75
     0
 76
     0
 77
     1
 78
     8
170
     0
171
     3
172
     1
173
     0
174
     0
175
     0
176
     0
177
     0
178
     0
  0
DIMSTYLE
  2
EZ_M_10_H25_CM
 70
     0
  3

  4

  5

  6

  7

 40
1.0
 41
0.025
 42
0.0125
 43
3.75
 44
0.0375
 45
0.0
 46
0.0
 47
0.0
 48
0.0
140
0.025
141
2.5
142
0.0125
143
0.03937007874
144
100.0
145
0.0
146
1.0
147
0.01
 71
     0
 72
     0
 73
     0
 74
     0
 75
     0
 76
     0
 77
     1
 78
     8
170
     0
171
     3
172
     1
173
     0
174
     0
175
     0
176
     0
177
     0
178
     0
  0
DIMSTYLE
  2
EZ_M_5_H25_CM
 70
     0
  3

  4

  5

  6

  7

 40
1.0
 41
0.0125
 42
0.00625
 43
3.75
 44
0.01875
 45
0.0
 46
0.0
 47
0.0
 48
0.0
140
0.0125
141
2.5
142
0.00625
143
0.03937007874
144
100.0
145
0.0
146
1.0
147
0.005
 71
     0
 72
     0
 73
     0
 74
     0
 75
     0
 76
     0
 77
     1
 78
     8
170
     0
171
     3
172
     1
173
     0
174
     0
175
     0
176
     0
177
     0
178
     0
  0
DIMSTYLE
  2
EZ_M_1_H25_CM
 70
     0
  3

  4

  5

  6

  7

 40
1.0
 41
0.0025
 42
0.00125
 43
3.75
 44
0.00375
 45
0.0
 46
0.0
 47
0.0
 48
0.0
140
0.0025
141
2.5
142
0.00125
143
0.03937007874
144
100.0
145
0.0
146
1.0
147
0.001
 71
     0
 72
     0
 73
     0
 74
     0
 75
     0
 76
     0
 77
     1
 78
     8
170
     0
171
     3
172
     1
173
     0
174
     0
175
     0
176
     0
177
     0
178
     0
  0
DIMSTYLE
  2
EZ_RADIUS
 70
     0
  3

  4

  5
CLOSEDBLANK
  6

  7

 40
1.0
 41
0.25
 42
0.125
 43
3.75
 44
0.375
 45
0.0
 46
0.0
 47
0.0
 48
0.0
140
0.25
141
0.0
142
0.0
143
0.03937007874
144
100.0
145
0.0
146
1.0
147
0.1
 71
     0
 72
     0
 73
     0
 74
     0
 75
     0
 76
     0
 77
     1
 78
     8
170
     0
171
     3
172
     0
173
     0
174
     0
175
     0
176
     0
177
     0
178
     0
  0
DIMSTYLE
  2
EZ_RADIUS_INSIDE
 70
     0
  3

  4

  5
CLOSEDBLANK
  6

  7

 40
1.0
 41
0.25
 42
0.125
 43
3.75
 44
0.375
 45
0.0
 46
0.0
 47
0.0
 48
0.0
140
0.25
141
0.0
142
0.0
143
0.03937007874
144
100.0
145
0.0
146
1.0
147
0.1
 71
     0
 72
     0
 73
     0
 74
     0
 75
     0
 76
     0
 77
     0
 78
     8
170
     0
171
     3
172
     0
173
     0
174
     1
175
     0
176
     0
177
     0
178
     0
  0
ENDTAB
  0
ENDSEC
  0
SECTION
  2
BLOCKS
  0
BLOCK
  8
0
  2
$MODEL_SPACE
 70
     0
 10
0.0
 20
0.0
 30
0.0
  3
$MODEL_SPACE
  1

  0
ENDBLK
  5
19
  8
0
  0
BLOCK
 67
     1
  8
0
  2
$PAPER_SPACE
 70
     0
 10
0.0
 20
0.0
 30
0.0
  3
$PAPER_SPACE
  1

  0
ENDBLK
  5
1D
 67
     1
  8
0
  0
BLOCK
  8
0
  2
_ARCHTICK
 70
     0
 10
0.0
 20
0.0
 30
0.0
  3
_ARCHTICK
  1

  0
POLYLINE
  5
75
  8
0
  6
BYBLOCK
 62
     0
 66
     1
 10
0.0
 20
0.0
 30
0.0
 40
0.15
 41
0.15
  0
VERTEX
  5
1D1
  8
0
  6
BYBLOCK
 62
     0
 10
-0.5
 20
-0.5000000000000001
 30
0.0
  0
VERTEX
  5
1D2
  8
0
  6
BYBLOCK
 62
     0
 10
0.5000000000000001
 20
0.5
 30
0.0
  0
SEQEND
  5
1D3
  8
0
  6
BYBLOCK
 62
     0
  0
ENDBLK
  5
74
  8
0
  0
BLOCK
  8
0
  2
_CLOSEDFILLED
 70
     0
 10
0.0
 20
0.0
 30
0.0
  3
_CLOSEDFILLED
  1

  0
SOLID
  5
79
  8
0
  6
BYBLOCK
 62
     0
 10
-1.0
 20
0.1643989837240255
 30
0.0
 11
0.0
 21
0.0
 31
0.0
 12
-1.0
 22
-0.1643989837240255
 32
0.0
 13
-1.0
 23
-0.1643989837240255
 33
0.0
  0
ENDBLK
  5
78
  8
0
  0
BLOCK
  8
0
  2
_CLOSEDBLANK
 70
     0
 10
0.0
 20
0.0
 30
0.0
  3
_CLOSEDBLANK
  1

  0
POLYLINE
  5
85
  8
0
  6
BYBLOCK
 62
     0
 66
     1
 10
0.0
 20
0.0
 30
0.0
 70
     1
  0
VERTEX
  5
1D4
  8
0
  6
BYBLOCK
 62
     0
 10
-1.0
 20
0.1643989837240255
 30
0.0
  0
VERTEX
  5
1D5
  8
0
  6
BYBLOCK
 62
     0
 10
0.0
 20
0.0
 30
0.0
  0
VERTEX
  5
1D6
  8
0
  6
BYBLOCK
 62
     0
 10
-1.0
 20
-0.1643989837240255
 30
0.0
  0
SEQEND
  5
1D7
  8
0
  6
BYBLOCK
 62
     0
  0
ENDBLK
  5
84
  8
0
  0
BLOCK
  8
0
  2
*U3
 70
     1
 10
0.0
 20
0.0
 30
0.0
  3
*U3
  1

  0
LINE
  5
13E
  8
0
 10
-0.5
 20
0.0
 30
0.0
 11
-20.421147013144779
 21
1.253332335643025
 31
0.0
  0
LINE
  5
13F
  8
0
 10
-0.4999999999999485
 20
-0.0000000000006757
 30
0.0
 11
-0.5788529868552211
 21
1.2533323356430419
 31
0.0
  0
ENDBLK
  5
E2
  8
0
  0
BLOCK
  8
0
  2
*U4
 70
     1
 10
0.0
 20
0.0
 30
0.0
  3
*U4
  1

  0
INSERT
  5
F9
  8
0
  6
BYBLOCK
 62
     0
  2
*U3
 10
10.4172043638020106
 20
1.315998952425194
 30
0.0
 41
1.0
 42
1.0
 43
1.0
 50
7.1999999999999789
  0
INSERT
  5
FA
  8
0
  6
BYBLOCK
 62
     0
  2
*U3
 10
10.1701231918506192
 20
2.6112438152309752
 30
0.0
 50
14.3999999999998103
  0
INSERT
  5
FB
  8
0
  6
BYBLOCK
 62
     0
  2
*U3
 10
9.7626531018266398
 20
3.8653078031891179
 30
0.0
 41
1.0
 42
1.0
 43
1.0
 50
21.5999999999996817
  0
INSERT
  5
FC
  8
0
  6
BYBLOCK
 62
     0
  2
*U3
 10
9.2012201404605651
 20
5.0584135780680111
 30
0.0
 41
1.0
 42
1.0
 43
1.0
 50
28.7999999999995389
  0
INSERT
  5
FD
  8
0
  6
BYBLOCK
 62
     0
  2
*U3
 10
8.4946784409369478
 20
6.1717451490709667
 30
0.0
 41
1.0
 42
1.0
 43
1.0
 50
35.9999999999994316
  0
INSERT
  5
FE
  8
0
  6
BYBLOCK
 62
     0
  2
*U3
 10
7.6541705879248214
 20
7.1877446122512314
 30
0.0
 41
1.0
 42
1.0
 43
1.0
 50
43.1999999999993634
  0
INSERT
  5
FF
  8
0
  6
BYBLOCK
 62
     0
  2
*U3
 10
6.6929518923612399
 20
8.0903890491457862
 30
0.0
 41
1.0
 42
1.0
 43
1.0
 50
50.3999999999992809
  0
INSERT
  5
100
  8
0
  6
BYBLOCK
 62
     0
  2
*U3
 10
5.6261813472794628
 20
8.8654432177711584
 30
0.0
 41
1.0
 42
1.0
 43
1.0
 50
57.5999999999992127
  0
INSERT
  5
101
  8
0
  6
BYBLOCK
 62
     0
  2
*U3
 10
4.4706825614332617
 20
9.5006840508932058
 30
0.0
 41
1.0
 42
1.0
 43
1.0
 50
64.799999999999244
  0
INSERT
  5
102
  8
0
  6
BYBLOCK
 62
     0
  2
*U3
 10
3.2446784409369478
 20
9.9860934210991115
 30
0.0
 50
71.9999999999991758
  0
INSERT
  5
103
  8
0
  6
BYBLOCK
 62
     0
  2
*U3
 10
1.9675038031501071
 20
10.3140161326512292
 30
0.0
 41
1.0
 42
1.0
 43
1.0
 50
79.1999999999990507
  0
INSERT
  5
104
  8
0
  6
BYBLOCK
 62
     0
  2
*U3
 10
0.6593004550577897
 20
10.4792806484968501
 30
0.0
 41
1.0
 42
1.0
 43
1.0
 50
86.3999999999989967
  0
INSERT
  5
105
  8
0
  6
BYBLOCK
 62
     0
  2
*U3
 10
-0.6593004550577931
 20
10.4792806484968501
 30
0.0
 41
1.0
 42
1.0
 43
1.0
 50
93.5999999999989853
  0
INSERT
  5
106
  8
0
  6
BYBLOCK
 62
     0
  2
*U3
 10
-1.96750380315011
 20
10.3140161326512292
 30
0.0
 41
1.0
 42
1.0
 43
1.0
 50
100.7999999999989029
  0
INSERT
  5
107
  8
0
  6
BYBLOCK
 62
     0
  2
*U3
 10
-3.2446784409369491
 20
9.9860934210991115
 30
0.0
 41
1.0
 42
1.0
 43
1.0
 50
107.9999999999987068
  0
INSERT
  5
108
  8
0
  6
BYBLOCK
 62
     0
  2
*U3
 10
-4.4706825614332626
 20
9.500684050893204
 30
0.0
 41
1.0
 42
1.0
 43
1.0
 50
115.199999999998596
  0
INSERT
  5
109
  8
0
  6
BYBLOCK
 62
     0
  2
*U3
 10
-5.626181347279462
 20
8.8654432177711602
 30
0.0
 41
1.0
 42
1.0
 43
1.0
 50
122.3999999999984993
  0
INSERT
  5
10A
  8
0
  6
BYBLOCK
 62
     0
  2
*U3
 10
-6.6929518923612417
 20
8.0903890491457862
 30
0.0
 41
1.0
 42
1.0
 43
1.0
 50
129.5999999999984027
  0
INSERT
  5
10B
  8
0
  6
BYBLOCK
 62
     0
  2
*U3
 10
-7.6541705879248179
 20
7.1877446122512332
 30
0.0
 41
1.0
 42
1.0
 43
1.0
 50
136.7999999999983061
  0
INSERT
  5
10C
  8
0
  6
BYBLOCK
 62
     0
  2
*U3
 10
-8.4946784409369478
 20
6.1717451490709694
 30
0.0
 41
1.0
 42
1.0
 43
1.0
 50
143.9999999999982947
  0
INSERT
  5
10D
  8
0
  6
BYBLOCK
 62
     0
  2
*U3
 10
-9.2012201404605651
 20
5.0584135780680093
 30
0.0
 41
1.0
 42
1.0
 43
1.0
 50
151.1999999999983118
  0
INSERT
  5
10E
  8
0
  6
BYBLOCK
 62
     0
  2
*U3
 10
-9.7626531018266398
 20
3.8653078031891162
 30
0.0
 41
1.0
 42
1.0
 43
1.0
 50
158.3999999999981867
  0
INSERT
  5
10F
  8
0
  6
BYBLOCK
 62
     0
  2
*U3
 10
-10.1701231918506192
 20
2.6112438152309752
 30
0.0
 41
1.0
 42
1.0
 43
1.0
 50
165.5999999999982037
  0
INSERT
  5
110
  8
0
  6
BYBLOCK
 62
     0
  2
*U3
 10
-10.4172043638020106
 20
1.315998952425192
 30
0.0
 41
1.0
 42
1.0
 43
1.0
 50
172.7999999999981924
  0
INSERT
  5
111
  8
0
  6
BYBLOCK
 62
     0
  2
*U3
 10
-10.5
 20
0.0000000000000013
 30
0.0
 41
1.0
 42
1.0
 43
1.0
 50
180.0
  0
INSERT
  5
112
  8
0
  6
BYBLOCK
 62
     0
  2
*U3
 10
-10.4172043638020106
 20
-1.3159989524251989
 30
0.0
 41
1.0
 42
1.0
 43
1.0
 50
187.1999999999981128
  0
INSERT
  5
113
  8
0
  6
BYBLOCK
 62
     0
  2
*U3
 10
-10.1701231918506299
 20
-2.611243815230972
 30
0.0
 50
194.3999999999979877
  0
INSERT
  5
114
  8
0
  6
BYBLOCK
 62
     0
  2
*U3
 10
-9.762653101826638
 20
-3.8653078031891219
 30
0.0
 41
1.0
 42
1.0
 43
1.0
 50
201.5999999999980901
  0
INSERT
  5
115
  8
0
  6
BYBLOCK
 62
     0
  2
*U3
 10
-9.2012201404605687
 20
-5.0584135780680066
 30
0.0
 41
1.0
 42
1.0
 43
1.0
 50
208.7999999999979934
  0
INSERT
  5
116
  8
0
  6
BYBLOCK
 62
     0
  2
*U3
 10
-8.494678440936946
 20
-6.1717451490709703
 30
0.0
 41
1.0
 42
1.0
 43
1.0
 50
215.9999999999980957
  0
INSERT
  5
117
  8
0
  6
BYBLOCK
 62
     0
  2
*U3
 10
-7.6541705879248214
 20
-7.1877446122512314
 30
0.0
 41
1.0
 42
1.0
 43
1.0
 50
223.1999999999981128
  0
INSERT
  5
118
  8
0
  6
BYBLOCK
 62
     0
  2
*U3
 10
-6.692951892361239
 20
-8.0903890491457862
 30
0.0
 41
1.0
 42
1.0
 43
1.0
 50
230.3999999999979877
  0
INSERT
  5
119
  8
0
  6
BYBLOCK
 62
     0
  2
*U3
 10
-5.6261813472794611
 20
-8.8654432177711602
 30
0.0
 41
1.0
 42
1.0
 43
1.0
 50
237.5999999999978911
  0
INSERT
  5
11A
  8
0
  6
BYBLOCK
 62
     0
  2
*U3
 10
-4.4706825614332661
 20
-9.500684050893204
 30
0.0
 41
1.0
 42
1.0
 43
1.0
 50
244.7999999999977092
  0
INSERT
  5
11B
  8
0
  6
BYBLOCK
 62
     0
  2
*U3
 10
-3.2446784409369398
 20
-9.986093421099115
 30
0.0
 50
251.9999999999976126
  0
INSERT
  5
11C
  8
0
  6
BYBLOCK
 62
     0
  2
*U3
 10
-1.967503803150108
 20
-10.3140161326512292
 30
0.0
 41
1.0
 42
1.0
 43
1.0
 50
259.1999999999973738
  0
INSERT
  5
11D
  8
0
  6
BYBLOCK
 62
     0
  2
*U3
 10
-0.6593004550577887
 20
-10.4792806484968501
 30
0.0
 41
1.0
 42
1.0
 43
1.0
 50
266.3999999999973056
  0
INSERT
  5
11E
  8
0
  6
BYBLOCK
 62
     0
  2
*U3
 10
0.6593004550577848
 20
-10.4792806484968501
 30
0.0
 41
1.0
 42
1.0
 43
1.0
 50
273.5999999999971806
  0
INSERT
  5
11F
  8
0
  6
BYBLOCK
 62
     0
  2
*U3
 10
1.9675038031501131
 20
-10.3140161326512292
 30
0.0
 41
1.0
 42
1.0
 43
1.0
 50
280.7999999999971124
  0
INSERT
  5
120
  8
0
  6
BYBLOCK
 62
     0
  2
*U3
 10
3.244678440936946
 20
-9.9860934210991132
 30
0.0
 41
1.0
 42
1.0
 43
1.0
 50
287.9999999999969873
  0
INSERT
  5
121
  8
0
  6
BYBLOCK
 62
     0
  2
*U3
 10
4.4706825614332617
 20
-9.5006840508932058
 30
0.0
 41
1.0
 42
1.0
 43
1.0
 50
295.1999999999969759
  0
INSERT
  5
122
  8
0
  6
BYBLOCK
 62
     0
  2
*U3
 10
5.6261813472794664
 20
-8.8654432177711566
 30
0.0
 41
1.0
 42
1.0
 43
1.0
 50
302.3999999999970214
  0
INSERT
  5
123
  8
0
  6
BYBLOCK
 62
     0
  2
*U3
 10
6.6929518923612443
 20
-8.0903890491457844
 30
0.0
 41
1.0
 42
1.0
 43
1.0
 50
309.5999999999968963
  0
INSERT
  5
124
  8
0
  6
BYBLOCK
 62
     0
  2
*U3
 10
7.6541705879248241
 20
-7.1877446122512261
 30
0.0
 41
1.0
 42
1.0
 43
1.0
 50
316.7999999999968281
  0
INSERT
  5
125
  8
0
  6
BYBLOCK
 62
     0
  2
*U3
 10
8.4946784409369478
 20
-6.1717451490709703
 30
0.0
 41
1.0
 42
1.0
 43
1.0
 50
323.9999999999968168
  0
INSERT
  5
126
  8
0
  6
BYBLOCK
 62
     0
  2
*U3
 10
9.2012201404605651
 20
-5.0584135780680111
 30
0.0
 41
1.0
 42
1.0
 43
1.0
 50
331.199999999996578
  0
INSERT
  5
127
  8
0
  6
BYBLOCK
 62
     0
  2
*U3
 10
9.7626531018266398
 20
-3.865307803189117
 30
0.0
 41
1.0
 42
1.0
 43
1.0
 50
338.3999999999966235
  0
INSERT
  5
128
  8
0
  6
BYBLOCK
 62
     0
  2
*U3
 10
10.1701231918506299
 20
-2.611243815230972
 30
0.0
 41
1.0
 42
1.0
 43
1.0
 50
345.5999999999964984
  0
INSERT
  5
129
  8
0
  6
BYBLOCK
 62
     0
  2
*U3
 10
10.4172043638020106
 20
-1.3159989524251889
 30
0.0
 41
1.0
 42
1.0
 43
1.0
 50
352.7999999999966008
  0
INSERT
  5
140
  8
0
  6
BYBLOCK
 62
     0
  2
*U3
 10
10.5
 20
0.0
 30
0.0
  0
ENDBLK
  5
E5
  8
0
  0
ENDSEC
  0
SECTION
  2
ENTITIES
  0
LINE
  5
141
  8
0
 10
10.0
 20
0.0
 30
0.0
 11
-9.9211470131447825
 21
1.253332335643025
 31
0.0
  0
LINE
  5
142
  8
0
 10
10.0000000000000497
 20
-0.0000000000006757
 30
0.0
 11
9.9211470131447772
 21
1.2533323356430419
 31
0.0
  0
LINE
  5
143
  8
0
 10
9.9211470131447772
 20
1.2533323356430419
 30
0.0
 11
-10.0
 21
-0.0000000000000053
 31
0.0
  0
LINE
  5
144
  8
0
 10
9.9211470131449122
 20
1.253332335642378
 30
0.0
 11
9.6858316112863125
 21
2.4868988716485481
 31
0.0
  0
LINE
  5
145
  8
0
 10
9.6858316112863108
 20
2.4868988716485481
 30
0.0
 11
-9.9211470131447932
 21
-1.2533323356430071
 31
0.0
  0
LINE
  5
146
  8
0
 10
9.6858316112865275
 20
2.4868988716479068
 30
0.0
 11
9.2977648588825144
 21
3.681245526846781
 31
0.0
  0
LINE
  5
147
  8
0
 10
9.2977648588825126
 20
3.6812455268467819
 30
0.0
 11
-9.6858316112863552
 21
-2.486898871648457
 31
0.0
  0
LINE
  5
148
  8
0
 10
9.2977648588828092
 20
3.681245526846173
 30
0.0
 11
8.7630668004386347
 21
4.8175367410171566
 31
0.0
  0
LINE
  5
149
  8
0
 10
8.7630668004386312
 20
4.8175367410171557
 30
0.0
 11
-9.2977648588825943
 21
-3.6812455268466588
 31
0.0
  0
LINE
  5
14A
  8
0
 10
8.7630668004390042
 20
4.817536741016589
 30
0.0
 11
8.0901699437494692
 21
5.8778525229247371
 31
0.0
  0
LINE
  5
14B
  8
0
 10
8.0901699437494692
 20
5.8778525229247354
 30
0.0
 11
-8.7630668004387573
 21
-4.8175367410170074
 31
0.0
  0
LINE
  5
14C
  8
0
 10
8.0901699437499097
 20
5.8778525229242176
 30
0.0
 11
7.2896862742141124
 21
6.8454710592868908
 31
0.0
  0
LINE
  5
14D
  8
0
 10
7.2896862742141106
 20
6.8454710592868899
 30
0.0
 11
-8.0901699437496255
 21
-5.8778525229245844
 31
0.0
  0
LINE
  5
14E
  8
0
 10
7.2896862742146107
 20
6.8454710592864334
 30
0.0
 11
6.374239897486893
 21
7.7051324277578983
 31
0.0
  0
LINE
  5
14F
  8
0
 10
6.3742398974868912
 20
7.7051324277578974
 30
0.0
 11
-7.2896862742143052
 21
-6.8454710592867416
 31
0.0
  0
LINE
  5
150
  8
0
 10
6.3742398974874437
 20
7.7051324277575048
 30
0.0
 11
5.3582679497899592
 21
8.4432792550201565
 31
0.0
  0
LINE
  5
151
  8
0
 10
5.3582679497899592
 20
8.4432792550201547
 30
0.0
 11
-6.3742398974871239
 21
-7.7051324277577571
 31
0.0
  0
LINE
  5
152
  8
0
 10
5.358267949790557
 20
8.4432792550198368
 30
0.0
 11
4.257792915650719
 21
9.0482705246602002
 31
0.0
  0
LINE
  5
153
  8
0
 10
4.257792915650719
 20
9.0482705246601984
 30
0.0
 11
-5.3582679497902008
 21
-8.4432792550200517
 31
0.0
  0
LINE
  5
154
  8
0
 10
4.2577929156513532
 20
9.0482705246599568
 30
0.0
 11
3.0901699437494661
 21
9.5105651629515382
 31
0.0
  0
LINE
  5
155
  8
0
 10
3.090169943749467
 20
9.5105651629515364
 30
0.0
 11
-4.2577929156509926
 21
-9.0482705246601132
 31
0.0
  0
LINE
  5
156
  8
0
 10
3.0901699437501251
 20
9.5105651629513765
 30
0.0
 11
1.873813145857238
 21
9.8228725072868901
 31
0.0
  0
LINE
  5
157
  8
0
 10
1.8738131458572369
 20
9.8228725072868883
 30
0.0
 11
-3.0901699437497929
 21
-9.5105651629514885
 31
0.0
  0
LINE
  5
158
  8
0
 10
1.8738131458579099
 20
9.8228725072868102
 30
0.0
 11
0.6279051952931228
 21
9.9802672842827178
 31
0.0
  0
LINE
  5
159
  8
0
 10
0.6279051952931241
 20
9.980267284282716
 30
0.0
 11
-1.8738131458575951
 21
-9.8228725072868759
 31
0.0
  0
LINE
  5
15A
  8
0
 10
0.6279051952938017
 20
9.9802672842827231
 30
0.0
 11
-0.6279051952931454
 21
9.9802672842827178
 31
0.0
  0
LINE
  5
15B
  8
0
 10
-0.627905195293145
 20
9.980267284282716
 30
0.0
 11
-0.6279051952934727
 21
-9.980267284282748
 31
0.0
  0
LINE
  5
15C
  8
0
 10
-0.6279051952924739
 20
9.9802672842828084
 30
0.0
 11
-1.8738131458572591
 21
9.8228725072868865
 31
0.0
  0
LINE
  5
15D
  8
0
 10
-1.8738131458572569
 20
9.8228725072868848
 30
0.0
 11
0.6279051952927595
 21
-9.9802672842827942
 31
0.0
  0
LINE
  5
15E
  8
0
 10
-1.873813145856603
 20
9.8228725072870624
 30
0.0
 11
-3.0901699437494869
 21
9.5105651629515346
 31
0.0
  0
LINE
  5
15F
  8
0
 10
-3.0901699437494861
 20
9.5105651629515311
 30
0.0
 11
1.873813145856827
 21
-9.8228725072870358
 31
0.0
  0
LINE
  5
160
  8
0
 10
-3.090169943748859
 20
9.5105651629517887
 30
0.0
 11
-4.2577929156507413
 21
9.0482705246601913
 31
0.0
  0
LINE
  5
161
  8
0
 10
-4.2577929156507377
 20
9.0482705246601896
 30
0.0
 11
3.090169943749038
 21
-9.5105651629517514
 31
0.0
  0
LINE
  5
162
  8
0
 10
-4.2577929156501479
 20
9.0482705246605235
 30
0.0
 11
-5.3582679497899797
 21
8.4432792550201441
 31
0.0
  0
LINE
  5
163
  8
0
 10
-5.3582679497899752
 20
8.4432792550201459
 30
0.0
 11
4.257792915650298
 21
-9.0482705246604755
 31
0.0
  0
LINE
  5
164
  8
0
 10
-5.3582679497894317
 20
8.4432792550205509
 30
0.0
 11
-6.374239897486909
 21
7.7051324277578859
 31
0.0
  0
LINE
  5
165
  8
0
 10
-6.3742398974869081
 20
7.7051324277578841
 30
0.0
 11
5.3582679497895542
 21
-8.4432792550204994
 31
0.0
  0
LINE
  5
166
  8
0
 10
-6.3742398974864196
 20
7.7051324277583539
 30
0.0
 11
-7.2896862742141293
 21
6.8454710592868784
 31
0.0
  0
LINE
  5
167
  8
0
 10
-7.2896862742141231
 20
6.8454710592868784
 30
0.0
 11
6.3742398974865067
 21
-7.7051324277583184
 31
0.0
  0
LINE
  5
168
  8
0
 10
-7.2896862742136967
 20
6.8454710592874051
 30
0.0
 11
-8.0901699437494852
 21
5.8778525229247212
 31
0.0
  0
LINE
  5
169
  8
0
 10
-8.0901699437494816
 20
5.8778525229247212
 30
0.0
 11
7.2896862742137891
 21
-6.8454710592873544
 31
0.0
  0
LINE
  5
16A
  8
0
 10
-8.0901699437491263
 20
5.8778525229252967
 30
0.0
 11
-8.7630668004386472
 21
4.8175367410171397
 31
0.0
  0
LINE
  5
16B
  8
0
 10
-8.7630668004386418
 20
4.8175367410171379
 30
0.0
 11
8.0901699437492027
 21
-5.8778525229252434
 31
0.0
  0
LINE
  5
16C
  8
0
 10
-8.7630668004383612
 20
4.8175367410177561
 30
0.0
 11
-9.2977648588825232
 21
3.6812455268467632
 31
0.0
  0
LINE
  5
16D
  8
0
 10
-9.2977648588825197
 20
3.6812455268467632
 30
0.0
 11
8.7630668004384233
 21
-4.8175367410177197
 31
0.0
  0
LINE
  5
16E
  8
0
 10
-9.2977648588823172
 20
3.6812455268474098
 30
0.0
 11
-9.6858316112863179
 21
2.486898871648529
 31
0.0
  0
LINE
  5
16F
  8
0
 10
-9.6858316112863143
 20
2.486898871648533
 30
0.0
 11
9.2977648588823723
 21
-3.6812455268473752
 31
0.0
  0
LINE
  5
170
  8
0
 10
-9.6858316112861971
 20
2.4868988716492
 30
0.0
 11
-9.9211470131447825
 21
1.253332335643025
 31
0.0
  0
LINE
  5
171
  8
0
 10
-9.9211470131447808
 20
1.253332335643025
 30
0.0
 11
9.6858316112862433
 21
-2.4868988716491658
 31
0.0
  0
LINE
  5
172
  8
0
 10
-9.921147013144747
 20
1.2533323356437021
 30
0.0
 11
-10.0
 21
-0.0000000000000202
 31
0.0
  0
LINE
  5
173
  8
0
 10
-10.0
 20
-0.0000000000000145
 30
0.0
 11
9.9211470131447861
 21
-1.2533323356436701
 31
0.0
  0
LINE
  5
174
  8
0
 10
-10.0000000000000497
 20
0.0000000000006612
 30
0.0
 11
-9.9211470131447772
 21
-1.253332335643059
 31
0.0
  0
LINE
  5
175
  8
0
 10
-9.9211470131447754
 20
-1.253332335643063
 30
0.0
 11
10.0000000000000906
 21
-0.0000000000006353
 31
0.0
  0
LINE
  5
176
  8
0
 10
-9.9211470131449104
 20
-1.2533323356423991
 30
0.0
 11
-9.6858316112863072
 21
-2.4868988716485712
 31
0.0
  0
LINE
  5
177
  8
0
 10
-9.6858316112863072
 20
-2.4868988716485618
 30
0.0
 11
9.9211470131449495
 21
1.2533323356423871
 31
0.0
  0
LINE
  5
178
  8
0
 10
-9.6858316112865257
 20
-2.4868988716479201
 30
0.0
 11
-9.2977648588825108
 21
-3.6812455268467961
 31
0.0
  0
LINE
  5
179
  8
0
 10
-9.2977648588825055
 20
-3.6812455268467978
 30
0.0
 11
9.6858316112865612
 21
2.4868988716479401
 31
0.0
  0
LINE
  5
17A
  8
0
 10
-9.2977648588828021
 20
-3.681245526846189
 30
0.0
 11
-8.7630668004386276
 21
-4.8175367410171752
 31
0.0
  0
LINE
  5
17B
  8
0
 10
-8.7630668004386294
 20
-4.8175367410171637
 30
0.0
 11
9.2977648588828483
 21
3.6812455268461921
 31
0.0
  0
LINE
  5
17C
  8
0
 10
-8.7630668004389989
 20
-4.817536741016597
 30
0.0
 11
-8.0901699437494656
 21
-5.877852522924746
 31
0.0
  0
LINE
  5
17D
  8
0
 10
-8.0901699437494621
 20
-5.877852522924746
 30
0.0
 11
8.7630668004390397
 21
4.8175367410166148
 31
0.0
  0
LINE
  5
17E
  8
0
 10
-8.0901699437499008
 20
-5.87785252292423
 30
0.0
 11
-7.2896862742141009
 21
-6.845471059286905
 31
0.0
  0
LINE
  5
17F
  8
0
 10
-7.2896862742141044
 20
-6.8454710592868979
 30
0.0
 11
8.0901699437499275
 21
5.8778525229242593
 31
0.0
  0
LINE
  5
180
  8
0
 10
-7.2896862742146036
 20
-6.8454710592864414
 30
0.0
 11
-6.3742398974868841
 21
-7.7051324277579072
 31
0.0
  0
LINE
  5
181
  8
0
 10
-6.3742398974868806
 20
-7.7051324277579036
 30
0.0
 11
7.289686274214648
 21
6.84547105928646
 31
0.0
  0
LINE
  5
182
  8
0
 10
-6.3742398974874339
 20
-7.7051324277575119
 30
0.0
 11
-5.3582679497899477
 21
-8.4432792550201654
 31
0.0
  0
LINE
  5
183
  8
0
 10
-5.3582679497899468
 20
-8.4432792550201619
 30
0.0
 11
6.3742398974875041
 21
7.7051324277575173
 31
0.0
  0
LINE
  5
184
  8
0
 10
-5.3582679497905454
 20
-8.4432792550198439
 30
0.0
 11
-4.2577929156507048
 21
-9.0482705246602091
 31
0.0
  0
LINE
  5
185
  8
0
 10
-4.2577929156507111
 20
-9.0482705246602002
 30
0.0
 11
5.3582679497906813
 21
8.4432792550198297
 31
0.0
  0
LINE
  5
186
  8
0
 10
-4.2577929156513452
 20
-9.0482705246599622
 30
0.0
 11
-3.0901699437494559
 21
-9.5105651629515453
 31
0.0
  0
LINE
  5
187
  8
0
 10
-3.0901699437494461
 20
-9.5105651629515453
 30
0.0
 11
4.2577929156515273
 21
9.0482705246599462
 31
0.0
  0
LINE
  5
188
  8
0
 10
-3.0901699437501051
 20
-9.5105651629513854
 30
0.0
 11
-1.8738131458572149
 21
-9.8228725072868972
 31
0.0
  0
LINE
  5
189
  8
0
 10
-1.873813145857224
 20
-9.8228725072868901
 30
0.0
 11
3.0901699437503698
 21
9.5105651629513748
 31
0.0
  0
LINE
  5
18A
  8
0
 10
-1.873813145857897
 20
-9.8228725072868155
 30
0.0
 11
-0.6279051952931074
 21
-9.9802672842827214
 31
0.0
  0
LINE
  5
18B
  8
0
 10
-0.6279051952931086
 20
-9.9802672842827178
 30
0.0
 11
1.8738131458581839
 21
9.8228725072868368
 31
0.0
  0
LINE
  5
18C
  8
0
 10
-0.6279051952937862
 20
-9.9802672842827267
 30
0.0
 11
0.6279051952931631
 21
-9.9802672842827178
 31
0.0
  0
LINE
  5
18D
  8
0
 10
0.6279051952931525
 20
-9.9802672842827143
 30
0.0
 11
0.6279051952941062
 21
9.9802672842827871
 31
0.0
  0
LINE
  5
18E
  8
0
 10
0.6279051952924815
 20
-9.9802672842828084
 30
0.0
 11
1.8738131458572691
 21
-9.8228725072868865
 31
0.0
  0
LINE
  5
18F
  8
0
 10
1.8738131458572751
 20
-9.8228725072868812
 30
0.0
 11
-0.6279051952921418
 21
9.9802672842829132
 31
0.0
  0
LINE
  5
190
  8
0
 10
1.8738131458566221
 20
-9.8228725072870589
 30
0.0
 11
3.0901699437495078
 21
-9.5105651629515293
 31
0.0
  0
LINE
  5
191
  8
0
 10
3.0901699437494972
 20
-9.5105651629515275
 30
0.0
 11
-1.873813145856251
 21
9.8228725072872187
 31
0.0
  0
LINE
  5
192
  8
0
 10
3.0901699437488701
 20
-9.5105651629517851
 30
0.0
 11
4.2577929156507537
 21
-9.0482705246601878
 31
0.0
  0
LINE
  5
193
  8
0
 10
4.2577929156507492
 20
-9.0482705246601842
 30
0.0
 11
-3.0901699437485379
 21
9.5105651629519876
 31
0.0
  0
LINE
  5
194
  8
0
 10
4.2577929156501604
 20
-9.0482705246605182
 30
0.0
 11
5.358267949789993
 21
-8.4432792550201388
 31
0.0
  0
LINE
  5
195
  8
0
 10
5.3582679497899903
 20
-8.4432792550201352
 30
0.0
 11
-4.2577929156498282
 21
9.0482705246607775
 31
0.0
  0
LINE
  5
196
  8
0
 10
5.3582679497894468
 20
-8.4432792550205402
 30
0.0
 11
6.374239897486925
 21
-7.7051324277578743
 31
0.0
  0
LINE
  5
197
  8
0
 10
6.3742398974869197
 20
-7.7051324277578717
 30
0.0
 11
-5.358267949789127
 21
8.4432792550208617
 31
0.0
  0
LINE
  5
198
  8
0
 10
6.374239897486432
 20
-7.7051324277583424
 30
0.0
 11
7.2896862742141417
 21
-6.8454710592868642
 31
0.0
  0
LINE
  5
199
  8
0
 10
7.2896862742141382
 20
-6.8454710592868624
 30
0.0
 11
-6.3742398974861327
 21
7.7051324277587181
 31
0.0
  0
LINE
  5
19A
  8
0
 10
7.2896862742137118
 20
-6.8454710592873891
 30
0.0
 11
8.0901699437495012
 21
-5.8778525229247034
 31
0.0
  0
LINE
  5
19B
  8
0
 10
8.0901699437494905
 20
-5.8778525229247096
 30
0.0
 11
-7.2896862742134507
 21
6.8454710592878154
 31
0.0
  0
LINE
  5
19C
  8
0
 10
8.0901699437491352
 20
-5.8778525229252869
 30
0.0
 11
8.763066800438656
 21
-4.817536741017129
 31
0.0
  0
LINE
  5
19D
  8
0
 10
8.7630668004386472
 20
-4.8175367410171273
 30
0.0
 11
-8.0901699437489114
 21
5.8778525229257763
 31
0.0
  0
LINE
  5
19E
  8
0
 10
8.7630668004383683
 20
-4.8175367410177437
 30
0.0
 11
9.2977648588825303
 21
-3.6812455268467499
 31
0.0
  0
LINE
  5
19F
  8
0
 10
9.297764858882525
 20
-3.6812455268467499
 30
0.0
 11
-8.7630668004382031
 21
4.8175367410182837
 31
0.0
  0
LINE
  5
1A0
  8
0
 10
9.2977648588823243
 20
-3.6812455268473969
 30
0.0
 11
9.6858316112863232
 21
-2.4868988716485139
 31
0.0
  0
LINE
  5
1A1
  8
0
 10
9.6858316112863196
 20
-2.4868988716485152
 30
0.0
 11
-9.2977648588822213
 21
3.681245526847968
 31
0.0
  0
LINE
  5
1A2
  8
0
 10
9.6858316112862024
 20
-2.4868988716491822
 30
0.0
 11
9.9211470131447896
 21
-1.2533323356430039
 31
0.0
  0
LINE
  5
1A3
  8
0
 10
9.9211470131447825
 20
-1.2533323356430071
 30
0.0
 11
-9.6858316112861687
 21
2.4868988716497729
 31
0.0
  0
LINE
  5
1A4
  8
0
 10
9.9211470131447488
 20
-1.2533323356436841
 30
0.0
 11
10.0
 21
0.0000000000000404
 31
0.0
  0
ENDSEC
  0
EOF
